<?xml version="1.0" encoding="UTF-8"?>
<svg xmlns="http://www.w3.org/2000/svg" height="16px" viewBox="0 0 16 16" width="16px"><g fill="#2e3436"><path d="m 8 2 c -3.3125 0 -6 2.6875 -6 6 s 2.6875 6 6 6 s 6 -2.6875 6 -6 s -2.6875 -6 -6 -6 z m 0 2 c 2.210938 0 4 1.789062 4 4 s -1.789062 4 -4 4 s -4 -1.789062 -4 -4 s 1.789062 -4 4 -4 z m 0 0"/><path d="m 8 5 c -1.644531 0 -3 1.355469 -3 3 s 1.355469 3 3 3 s 3 -1.355469 3 -3 s -1.355469 -3 -3 -3 z m 0 2 c 0.5625 0 1 0.4375 1 1 s -0.4375 1 -1 1 s -1 -0.4375 -1 -1 s 0.4375 -1 1 -1 z m 0 0"/><path d="m 1 8 h 2 v 1 h -2 z m 0 0"/><path d="m 13 8 h 2 v 1 h -2 z m 0 0"/></g></svg>
