<?xml version="1.0" encoding="UTF-8"?>
<svg version="1.1" xmlns="http://www.w3.org/2000/svg" width="500" height="500">
<path d="M0 0 C1.90959204 1.3610922 3.8456576 2.63219054 5.828125 3.8828125 C6.611875 4.4396875 7.395625 4.9965625 8.203125 5.5703125 C8.203125 6.2303125 8.203125 6.8903125 8.203125 7.5703125 C8.71875 7.7971875 9.234375 8.0240625 9.765625 8.2578125 C13.09859505 10.05248868 16.35016171 12.06996265 19.203125 14.5703125 C19.203125 15.2303125 19.203125 15.8903125 19.203125 16.5703125 C19.863125 16.5703125 20.523125 16.5703125 21.203125 16.5703125 C21.203125 17.2303125 21.203125 17.8903125 21.203125 18.5703125 C21.863125 18.5703125 22.523125 18.5703125 23.203125 18.5703125 C23.203125 19.2303125 23.203125 19.8903125 23.203125 20.5703125 C23.863125 20.5703125 24.523125 20.5703125 25.203125 20.5703125 C27.328125 22.4453125 27.328125 22.4453125 29.203125 24.5703125 C29.203125 25.2303125 29.203125 25.8903125 29.203125 26.5703125 C29.863125 26.5703125 30.523125 26.5703125 31.203125 26.5703125 C32.64125173 28.13972051 34.0034255 29.77905285 35.328125 31.4453125 C36.12863281 32.44691406 36.92914063 33.44851562 37.75390625 34.48046875 C38.56214844 35.50011719 39.37039063 36.51976563 40.203125 37.5703125 C40.93917969 38.47652344 41.67523438 39.38273437 42.43359375 40.31640625 C45.92385342 44.61865879 49.14841885 48.94478023 52.203125 53.5703125 C52.93789063 54.60285156 53.67265625 55.63539063 54.4296875 56.69921875 C63.79346785 69.9869803 71.44218878 84.99640249 76.203125 100.5703125 C76.42419922 101.26962891 76.64527344 101.96894531 76.87304688 102.68945312 C90.63244395 146.54083029 91.22482431 194.35041119 74.203125 237.5703125 C73.92243164 238.28912598 73.64173828 239.00793945 73.35253906 239.74853516 C66.26835295 257.72137769 57.50914373 273.916176 46.203125 289.5703125 C45.23246094 290.94509766 45.23246094 290.94509766 44.2421875 292.34765625 C42.95561086 294.13317358 41.59090903 295.86227062 40.203125 297.5703125 C39.543125 297.5703125 38.883125 297.5703125 38.203125 297.5703125 C37.96207031 298.12847656 37.72101563 298.68664062 37.47265625 299.26171875 C32.7374468 307.87251502 23.92088589 315.56760959 16.203125 321.5703125 C15.543125 321.5703125 14.883125 321.5703125 14.203125 321.5703125 C14.203125 322.2303125 14.203125 322.8903125 14.203125 323.5703125 C13.543125 323.5703125 12.883125 323.5703125 12.203125 323.5703125 C12.203125 324.2303125 12.203125 324.8903125 12.203125 325.5703125 C10.01083896 327.37144377 7.81822012 329.04518439 5.515625 330.6953125 C4.83226074 331.1888623 4.14889648 331.68241211 3.44482422 332.19091797 C-17.74891567 347.33773138 -40.62439211 358.58916474 -65.84033203 365.05908203 C-68.44540149 365.73976776 -71.02472075 366.50379871 -73.609375 367.2578125 C-88.72509834 371.34251942 -104.45225659 371.75728851 -120.01708984 371.75561523 C-122.29413346 371.75780986 -124.5706971 371.77607369 -126.84765625 371.79492188 C-135.69988622 371.82868246 -144.06366756 371.16416164 -152.796875 369.5703125 C-154.14207352 369.38341189 -155.48831551 369.20369669 -156.8359375 369.03515625 C-175.63283311 366.2709069 -194.17946642 359.70988722 -210.796875 350.5703125 C-212.69186478 349.69348712 -214.58770833 348.81850467 -216.484375 347.9453125 C-225.49205271 343.43546051 -233.64030802 337.44191496 -241.796875 331.5703125 C-242.44479004 331.10463867 -243.09270508 330.63896484 -243.76025391 330.15917969 C-255.44026596 321.65256912 -267.35029898 311.36121811 -275.796875 299.5703125 C-275.796875 298.9103125 -275.796875 298.2503125 -275.796875 297.5703125 C-276.456875 297.5703125 -277.116875 297.5703125 -277.796875 297.5703125 C-277.796875 296.9103125 -277.796875 296.2503125 -277.796875 295.5703125 C-278.456875 295.5703125 -279.116875 295.5703125 -279.796875 295.5703125 C-281.16297212 293.86198519 -282.43997011 292.08216351 -283.67578125 290.27734375 C-284.04791245 289.73430099 -284.42004364 289.19125824 -284.80345154 288.63175964 C-285.59105567 287.47810621 -286.37514401 286.32204601 -287.15600586 285.16381836 C-288.34758504 283.40026183 -289.55467698 281.64813207 -290.76367188 279.89648438 C-291.52701177 278.77409666 -292.28941197 277.65106916 -293.05078125 276.52734375 C-293.74502197 275.50616455 -294.4392627 274.48498535 -295.15454102 273.43286133 C-296.72202402 270.70077596 -297.40953067 268.67013421 -297.796875 265.5703125 C-298.456875 265.5703125 -299.116875 265.5703125 -299.796875 265.5703125 C-301.21716508 262.44694731 -302.63241189 259.32132032 -304.046875 256.1953125 C-304.44261719 255.32519531 -304.83835937 254.45507812 -305.24609375 253.55859375 C-309.33551316 244.50823932 -312.98181822 235.43438465 -315.921875 225.9453125 C-316.17324219 225.15125 -316.42460937 224.3571875 -316.68359375 223.5390625 C-326.86565277 191.02044468 -327.34261928 156.82929223 -320.796875 123.5703125 C-320.65266113 122.78060059 -320.50844727 121.99088867 -320.35986328 121.17724609 C-317.6957235 106.70047198 -312.76890299 90.99584995 -304.796875 78.5703125 C-304.10108046 76.37900716 -304.10108046 76.37900716 -303.796875 74.5703125 C-303.136875 74.5703125 -302.476875 74.5703125 -301.796875 74.5703125 C-301.71308594 74.05597656 -301.62929688 73.54164063 -301.54296875 73.01171875 C-300.48895276 69.56271354 -298.67364201 66.60009415 -296.859375 63.5078125 C-296.49908203 62.88326172 -296.13878906 62.25871094 -295.76757812 61.61523438 C-294.18099009 58.87742041 -292.55263528 56.20395291 -290.796875 53.5703125 C-290.136875 53.5703125 -289.476875 53.5703125 -288.796875 53.5703125 C-288.549375 52.8690625 -288.301875 52.1678125 -288.046875 51.4453125 C-285.22081201 44.94536763 -280.54108536 38.82867373 -275.796875 33.5703125 C-275.136875 33.5703125 -274.476875 33.5703125 -273.796875 33.5703125 C-273.301875 32.0853125 -273.301875 32.0853125 -272.796875 30.5703125 C-271.806875 30.2403125 -270.816875 29.9103125 -269.796875 29.5703125 C-269.466875 28.9103125 -269.136875 28.2503125 -268.796875 27.5703125 C-266.734375 26.9453125 -266.734375 26.9453125 -264.796875 26.5703125 C-264.755625 25.9928125 -264.714375 25.4153125 -264.671875 24.8203125 C-263.34188109 21.40032817 -260.89599168 20.36780018 -257.796875 18.5703125 C-256.806875 18.2403125 -255.816875 17.9103125 -254.796875 17.5703125 C-254.3328125 16.61125 -254.3328125 16.61125 -253.859375 15.6328125 C-252.796875 13.5703125 -252.796875 13.5703125 -250.859375 12.6953125 C-248.50638642 11.67653424 -248.50638642 11.67653424 -247.48046875 8.74609375 C-245.62097537 5.23851111 -244.03885461 3.86167348 -240.796875 1.6328125 C-239.80945313 0.9521875 -238.82203125 0.2715625 -237.8046875 -0.4296875 C-236.81210938 -1.0896875 -235.81953125 -1.7496875 -234.796875 -2.4296875 C-233.94867188 -3.0071875 -233.10046875 -3.5846875 -232.2265625 -4.1796875 C-161.89542134 -50.63695506 -68.49378942 -49.27133884 0 0 Z M-174.546875 -5.9296875 C-175.5258374 -5.59565918 -176.5047998 -5.26163086 -177.51342773 -4.91748047 C-203.08591599 4.13770901 -224.41603601 17.44068271 -244.484375 35.5078125 C-245.27944458 36.21732056 -245.27944458 36.21732056 -246.09057617 36.94116211 C-247.36590335 38.10874503 -248.58696735 39.33506647 -249.796875 40.5703125 C-249.796875 41.2303125 -249.796875 41.8903125 -249.796875 42.5703125 C-250.456875 42.5703125 -251.116875 42.5703125 -251.796875 42.5703125 C-253.21394002 44.11919752 -254.55496996 45.73792784 -255.859375 47.3828125 C-260.64359225 53.39178936 -260.64359225 53.39178936 -263.07421875 56.22265625 C-287.83351486 85.15926769 -300.5267475 124.5835157 -300.171875 162.2578125 C-300.16722229 163.13838318 -300.16256958 164.01895386 -300.15777588 164.9262085 C-300.07689577 177.9858271 -299.73385142 190.79106217 -296.796875 203.5703125 C-296.59288086 204.46266602 -296.38888672 205.35501953 -296.17871094 206.27441406 C-289.81190171 233.17812175 -278.2901424 258.09220593 -260.796875 279.5703125 C-259.91623337 280.68585599 -259.03601101 281.80173063 -258.15625 282.91796875 C-242.27469767 302.71245382 -222.17154861 317.84801812 -199.796875 329.5703125 C-198.63800781 330.19550781 -197.47914063 330.82070313 -196.28515625 331.46484375 C-183.26462713 338.27946503 -167.76868201 345.20741067 -152.796875 344.5703125 C-152.87808594 343.74789063 -152.95929688 342.92546875 -153.04296875 342.078125 C-153.49606533 334.07033645 -152.50280976 329.77462346 -147.328125 323.59375 C-145.49515366 321.5945299 -145.49515366 321.5945299 -145.796875 318.5703125 C-152.85956809 317.05258484 -157.2022207 317.62893341 -163.47265625 321.24609375 C-168.94824632 324.36579969 -173.55674928 325.32835594 -179.796875 324.5703125 C-183.234375 323.0703125 -183.234375 323.0703125 -185.796875 321.5703125 C-186.456875 321.5703125 -187.116875 321.5703125 -187.796875 321.5703125 C-188.003125 321.0134375 -188.209375 320.4565625 -188.421875 319.8828125 C-191.00557992 315.5374906 -195.17245974 312.51605703 -199.796875 310.5703125 C-201.88641261 310.30267867 -201.88641261 310.30267867 -204.046875 310.2578125 C-209.09851496 309.79022269 -213.00247222 307.94614807 -216.796875 304.5703125 C-219.89967224 300.1290537 -219.19225558 294.60155782 -219.35546875 289.39453125 C-219.59719326 285.54749562 -219.59719326 285.54749562 -221.33203125 282.25390625 C-223.28289204 277.34814165 -223.01584832 273.15687748 -222.796875 267.9453125 C-222.32404559 259.77747184 -222.32404559 259.77747184 -225.796875 252.5703125 C-226.55049267 249.43023887 -226.5855032 246.70828066 -225.796875 243.5703125 C-223.05363843 240.05165439 -220.00634188 237.97346813 -215.796875 236.5703125 C-216.52386225 231.36189696 -218.86309524 227.00319939 -221.18164062 222.36132812 C-222.80069115 219.02396183 -224.01150102 215.94823847 -224.7890625 212.3125 C-225.82422738 208.46874824 -226.3958757 207.3317717 -229.484375 205.0078125 C-230.20367187 204.4303125 -230.92296875 203.8528125 -231.6640625 203.2578125 C-232.36789063 202.7009375 -233.07171875 202.1440625 -233.796875 201.5703125 C-247.10803684 189.79269465 -256.70622802 174.24225922 -263.7109375 158.0703125 C-264.39702991 156.49081919 -265.11708998 154.92527512 -265.8828125 153.3828125 C-273.14743746 138.52583514 -275.04689144 117.3035164 -270.8828125 101.2890625 C-269.73787431 98.18664934 -268.43934663 95.43590131 -266.796875 92.5703125 C-266.3740625 91.7246875 -265.95125 90.8790625 -265.515625 90.0078125 C-262.74461117 84.85243793 -259.23891125 80.86017202 -255.171875 76.6953125 C-250.60646246 71.99566748 -248.45843869 67.82416801 -246.7265625 61.5234375 C-243.64670751 51.74036871 -237.51584149 45.55073104 -228.796875 40.5703125 C-228.01054687 40.06371094 -227.22421875 39.55710938 -226.4140625 39.03515625 C-216.40017225 33.40038101 -201.80263859 34.13012057 -190.796875 36.5703125 C-187.67427842 37.90805307 -184.74766267 39.51692824 -181.796875 41.1953125 C-180.64445312 41.81599609 -180.64445312 41.81599609 -179.46875 42.44921875 C-172.85396113 46.15035062 -166.98713197 50.52130872 -163.796875 57.5703125 C-159.91639845 57.02704578 -158.46514109 55.3924898 -155.921875 52.5078125 C-150.29087564 46.70113336 -143.9648876 43.10642562 -136.796875 39.5703125 C-135.88679687 39.11269531 -134.97671875 38.65507813 -134.0390625 38.18359375 C-120.67855314 32.63294482 -103.17459365 33.85693654 -89.8984375 39.08203125 C-85.4992991 41.19295282 -81.61895659 43.5438479 -77.796875 46.5703125 C-77.18585938 47.00859375 -76.57484375 47.446875 -75.9453125 47.8984375 C-67.3319129 54.50077905 -61.09935427 66.01540625 -58.796875 76.5703125 C-58.6547049 78.15599089 -58.55183459 79.74549882 -58.48046875 81.3359375 C-58.41762695 82.67011719 -58.41762695 82.67011719 -58.35351562 84.03125 C-58.31419922 84.95164062 -58.27488281 85.87203125 -58.234375 86.8203125 C-58.16959961 88.22410156 -58.16959961 88.22410156 -58.10351562 89.65625 C-57.9976945 91.96079891 -57.89560943 94.26545089 -57.796875 96.5703125 C-56.80429687 96.910625 -55.81171875 97.2509375 -54.7890625 97.6015625 C-31.97824641 105.64178814 -12.77339411 119.51143308 4.203125 136.5703125 C5.08226562 137.44945312 5.96140625 138.32859375 6.8671875 139.234375 C25.42124699 158.7554213 39.57986071 182.72319325 47.203125 208.5703125 C47.40760254 209.25319336 47.61208008 209.93607422 47.82275391 210.63964844 C49.00202404 214.60281515 50.12742474 218.57756624 51.203125 222.5703125 C54.02366647 219.74977103 54.65930919 216.36539728 55.765625 212.6328125 C56.20434907 211.18617425 56.64314829 209.7395588 57.08203125 208.29296875 C57.45199219 207.06449219 57.82195312 205.83601562 58.203125 204.5703125 C58.533125 203.5803125 58.863125 202.5903125 59.203125 201.5703125 C59.50606882 198.73862932 59.71067558 195.90628415 59.921875 193.06640625 C60.203125 190.5703125 60.203125 190.5703125 61.203125 188.5703125 C68.2459671 146.03937157 56.17235953 100.1410734 31.8125 65.0546875 C27.63665615 59.36035498 23.10165973 54.05269148 18.3125 48.8671875 C16.42412688 46.81095899 14.62331917 44.70744842 12.828125 42.5703125 C-0.31089428 27.60974737 -17.12127774 15.55373278 -34.796875 6.5703125 C-35.89056396 6.00618652 -35.89056396 6.00618652 -37.00634766 5.43066406 C-58.876914 -5.75064541 -82.07732284 -13.45869323 -106.78125 -13.66796875 C-107.71753235 -13.6760405 -108.6538147 -13.68411224 -109.61846924 -13.69242859 C-111.59507445 -13.70618493 -113.57170258 -13.71694438 -115.54833984 -13.72485352 C-117.5259522 -13.73628573 -119.50353589 -13.75659552 -121.48095703 -13.78637695 C-139.78012862 -14.06084919 -157.17745957 -11.94594549 -174.546875 -5.9296875 Z M-217.796875 47.5703125 C-218.27261938 50.11055254 -218.63695047 52.57082714 -218.921875 55.1328125 C-219.05142578 56.19918945 -219.05142578 56.19918945 -219.18359375 57.28710938 C-219.39622283 59.04720562 -219.59760197 60.80865414 -219.796875 62.5703125 C-217.8407511 62.48171403 -217.8407511 62.48171403 -215.796875 61.5703125 C-214.50165581 59.16810434 -214.50165581 59.16810434 -213.671875 56.2578125 C-212.57797167 52.87213648 -211.48194193 49.70930886 -209.796875 46.5703125 C-213.93781198 46.36060691 -213.93781198 46.36060691 -217.796875 47.5703125 Z M-147.171875 62.359375 C-148.69400841 64.25703475 -150.19143026 66.17494503 -151.65625 68.1171875 C-154.34022031 71.19297829 -157.19313996 72.76844498 -160.796875 74.5703125 C-160.796875 73.9103125 -160.796875 73.2503125 -160.796875 72.5703125 C-177.12656427 66.21987778 -191.4149897 65.40585507 -208.796875 65.5703125 C-208.796875 66.2303125 -208.796875 66.8903125 -208.796875 67.5703125 C-210.11042969 67.48136719 -211.42398438 67.39242187 -212.77734375 67.30078125 C-218.17456135 67.31238817 -221.61762503 69.04746763 -226.109375 71.8828125 C-226.84140137 72.33140625 -227.57342773 72.78 -228.32763672 73.2421875 C-241.40890251 81.51066979 -253.86196942 93.0691693 -257.796875 108.5703125 C-258.07830307 111.93822214 -258.05483154 115.2025465 -257.796875 118.5703125 C-256.95125 118.0753125 -256.105625 117.5803125 -255.234375 117.0703125 C-242.06783686 111.435141 -225.63387265 117.06629057 -212.88671875 121.546875 C-210.02293585 122.67512151 -210.02293585 122.67512151 -207.796875 122.5703125 C-208.126875 125.2103125 -208.456875 127.8503125 -208.796875 130.5703125 C-209.80105469 130.16039062 -210.80523437 129.75046875 -211.83984375 129.328125 C-220.42810827 125.90844958 -228.51003732 123.33056999 -237.796875 122.5703125 C-238.86164063 122.47621094 -239.92640625 122.38210937 -241.0234375 122.28515625 C-246.80155048 122.00557014 -250.87310786 122.39401504 -255.6875 125.6953125 C-257.55147068 128.84568548 -257.278904 132.06450546 -256.796875 135.5703125 C-255.93199386 138.47964432 -254.74557317 141.18807671 -253.484375 143.9453125 C-251.46330015 148.55388126 -249.55197865 152.97723615 -248.359375 157.8828125 C-245.69945492 167.37792116 -238.61638874 175.14294739 -232.01171875 182.19921875 C-229.88549818 184.47543724 -227.87570025 186.82197191 -225.859375 189.1953125 C-223.01575111 192.494828 -220.1892837 194.64531315 -216.546875 197.0078125 C-210.88350226 201.31335081 -210.45398455 205.93962279 -209.33178711 212.57617188 C-207.80185877 220.98172746 -203.93637533 226.88356954 -198.796875 233.5703125 C-197.65605469 235.08625 -197.65605469 235.08625 -196.4921875 236.6328125 C-192.06582776 242.26914601 -187.3761427 247.09015007 -181.796875 251.5703125 C-181.03761719 252.20453125 -180.27835937 252.83875 -179.49609375 253.4921875 C-163.08411215 267.07703292 -163.08411215 267.07703292 -142.796875 270.5703125 C-144.17995408 267.53428526 -145.82874755 265.23076446 -147.984375 262.6953125 C-159.47362374 248.13586785 -163.01661015 232.69115614 -161.55078125 214.51953125 C-159.88178839 202.6301079 -153.6306747 192.53589164 -144.796875 184.5703125 C-141.25407305 181.99461286 -137.59775608 179.74142185 -133.796875 177.5703125 C-133.06984375 177.07402344 -132.3428125 176.57773437 -131.59375 176.06640625 C-122.56609582 171.23736777 -113.20057589 170.96858908 -103.171875 171.0078125 C-102.10655548 171.00754059 -102.10655548 171.00754059 -101.01971436 171.00726318 C-89.89950302 171.04774596 -80.67732471 172.08678926 -70.796875 177.5703125 C-69.89195312 178.02664063 -68.98703125 178.48296875 -68.0546875 178.953125 C-55.04130735 186.04764689 -38.09260938 200.31005437 -33.07421875 214.6328125 C-32.59780121 217.96102518 -32.74089435 221.21147347 -32.796875 224.5703125 C-39.5382365 226.36740075 -43.55471115 224.3526253 -49.609375 221.2578125 C-50.46724609 220.84080078 -51.32511719 220.42378906 -52.20898438 219.99414062 C-58.45358599 216.91360151 -58.45358599 216.91360151 -60.796875 214.5703125 C-66.29221538 212.8991105 -71.33367511 212.29086954 -77.046875 212.1328125 C-84.25626107 211.83503524 -90.87305393 210.69148312 -97.796875 208.5703125 C-98.08984375 202.515625 -98.08984375 202.515625 -97.796875 200.5703125 C-90.78534719 195.89596063 -78.92438445 198.5216016 -70.796875 199.5703125 C-71.98583737 196.00342538 -72.58393597 195.85756221 -75.796875 194.1953125 C-76.60898437 193.76863281 -77.42109375 193.34195313 -78.2578125 192.90234375 C-79.09570312 192.46277344 -79.93359375 192.02320313 -80.796875 191.5703125 C-83.02169546 190.28050795 -85.2442285 188.98729042 -87.4609375 187.68359375 C-98.01869127 182.65188836 -111.73309184 183.24769838 -122.796875 186.5703125 C-133.10681318 190.78646271 -141.37853564 198.34129995 -145.796875 208.5703125 C-147.8363733 214.00897463 -148.03045355 218.84763793 -147.796875 224.5703125 C-146.9615625 224.77333984 -146.9615625 224.77333984 -146.109375 224.98046875 C-136.92919121 227.57014898 -131.58717125 233.09613191 -126.171875 240.71875 C-124.28874698 243.25455307 -122.05684124 245.37142643 -119.796875 247.5703125 C-119.24 248.3334375 -118.683125 249.0965625 -118.109375 249.8828125 C-117.67625 250.4396875 -117.243125 250.9965625 -116.796875 251.5703125 C-116.136875 251.5703125 -115.476875 251.5703125 -114.796875 251.5703125 C-114.796875 252.2303125 -114.796875 252.8903125 -114.796875 253.5703125 C-112.85433572 255.19884384 -110.92517696 256.67360638 -108.859375 258.1328125 C-108.24054443 258.57246338 -107.62171387 259.01211426 -106.98413086 259.46508789 C-96.01722513 267.05881661 -83.74964584 273.41976608 -71.046875 277.5078125 C-67.20200767 278.74826551 -63.41700793 280.08941834 -59.63671875 281.51171875 C-52.92865032 283.96565422 -46.07727709 285.62072909 -39.13867188 287.28125 C-33.19240176 288.76283907 -28.19139261 290.66417507 -22.796875 293.5703125 C-21.806875 293.9003125 -20.816875 294.2303125 -19.796875 294.5703125 C-20.126875 298.5303125 -20.456875 302.4903125 -20.796875 306.5703125 C-5.1926443 298.76819715 5.454857 279.7219451 11.5234375 264.19140625 C16.90903077 247.33788885 15.64660523 228.91881157 9.83935547 212.38769531 C9.29571 210.83478018 8.80794378 209.26249304 8.33203125 207.6875 C5.47795167 198.75655241 0.62623843 190.57729951 -3.82885742 182.36694336 C-4.50499449 181.11203978 -5.15938863 179.84528523 -5.796875 178.5703125 C-6.456875 178.5703125 -7.116875 178.5703125 -7.796875 178.5703125 C-8.05855469 177.85875 -8.32023438 177.1471875 -8.58984375 176.4140625 C-11.62429805 169.26492744 -16.09331321 162.8235931 -21.796875 157.5703125 C-22.70454075 156.47585177 -23.60023525 155.37136461 -24.484375 154.2578125 C-25.6290625 152.9275 -25.6290625 152.9275 -26.796875 151.5703125 C-27.456875 151.5703125 -28.116875 151.5703125 -28.796875 151.5703125 C-29.03535156 150.98378906 -29.27382813 150.39726562 -29.51953125 149.79296875 C-31.05935566 147.11358009 -32.75068463 145.83081676 -35.234375 144.0078125 C-39.585804 140.78904541 -39.585804 140.78904541 -41.19580078 139.12060547 C-42.89508691 137.47521558 -44.59199985 136.31971306 -46.60546875 135.08203125 C-47.34708252 134.62594482 -48.08869629 134.1698584 -48.8527832 133.69995117 C-49.6387085 133.22404541 -50.42463379 132.74813965 -51.234375 132.2578125 C-52.0389917 131.76579346 -52.8436084 131.27377441 -53.67260742 130.7668457 C-58.22886354 128.01252449 -62.79015259 125.51719857 -67.609375 123.2578125 C-72.35383231 120.9480975 -75.19094274 119.22376297 -77.796875 114.5703125 C-78.45574343 109.71115786 -77.78411134 106.37682536 -76.296875 101.7578125 C-74.71963855 96.42062374 -74.49291277 91.40514774 -74.484375 85.8828125 C-74.47921875 85.08705811 -74.4740625 84.29130371 -74.46875 83.47143555 C-74.55904079 75.71045886 -75.74007721 67.75806506 -80.796875 61.5703125 C-92.31169483 50.66739131 -102.07727296 46.97286713 -117.62109375 47.23046875 C-129.53866788 47.75277014 -139.52221264 53.3760544 -147.171875 62.359375 Z M-228.796875 54.5703125 C-228.96374948 57.15385468 -228.96374948 57.15385468 -228.796875 59.5703125 C-230.116875 59.5703125 -231.436875 59.5703125 -232.796875 59.5703125 C-235.08732514 64.38241151 -235.08732514 64.38241151 -235.796875 69.5703125 C-231.836875 69.0753125 -231.836875 69.0753125 -227.796875 68.5703125 C-227.549375 67.8278125 -227.301875 67.0853125 -227.046875 66.3203125 C-225.796875 63.5703125 -225.796875 63.5703125 -223.671875 61.6953125 C-221.41386212 59.57190177 -221.41386212 59.57190177 -221.546875 55.8203125 C-221.629375 54.7478125 -221.711875 53.6753125 -221.796875 52.5703125 C-225.75145348 52.22207443 -225.75145348 52.22207443 -228.796875 54.5703125 Z M-198.796875 287.5703125 C-198.796875 288.2303125 -198.796875 288.8903125 -198.796875 289.5703125 C-199.43625 289.7971875 -200.075625 290.0240625 -200.734375 290.2578125 C-203.06881161 291.42282146 -203.06881161 291.42282146 -203.546875 294.1953125 C-203.629375 294.9790625 -203.711875 295.7628125 -203.796875 296.5703125 C-201.9096875 296.60125 -201.9096875 296.60125 -199.984375 296.6328125 C-199.27667969 296.64441406 -198.56898438 296.65601563 -197.83984375 296.66796875 C-195.59382039 296.65294467 -195.59382039 296.65294467 -192.796875 295.5703125 C-190.73542393 295.5013215 -188.67186099 295.48563523 -186.609375 295.5078125 C-184.97935547 295.52134766 -184.97935547 295.52134766 -183.31640625 295.53515625 C-182.48496094 295.54675781 -181.65351563 295.55835938 -180.796875 295.5703125 C-180.796875 296.5603125 -180.796875 297.5503125 -180.796875 298.5703125 C-180.136875 298.5703125 -179.476875 298.5703125 -178.796875 298.5703125 C-178.82007813 299.26898438 -178.84328125 299.96765625 -178.8671875 300.6875 C-178.89425781 302.05261719 -178.89425781 302.05261719 -178.921875 303.4453125 C-178.94507813 304.35023438 -178.96828125 305.25515625 -178.9921875 306.1875 C-179.04012336 308.75838244 -179.04012336 308.75838244 -176.796875 310.5703125 C-170.68629075 311.63966474 -165.96629211 308.43085952 -160.796875 305.5703125 C-160.796875 304.9103125 -160.796875 304.2503125 -160.796875 303.5703125 C-159.146875 303.2403125 -157.496875 302.9103125 -155.796875 302.5703125 C-155.796875 301.9103125 -155.796875 301.2503125 -155.796875 300.5703125 C-155.178125 300.3228125 -154.559375 300.0753125 -153.921875 299.8203125 C-151.44618813 298.36402611 -150.84562498 297.19218744 -149.796875 294.5703125 C-149.136875 294.5703125 -148.476875 294.5703125 -147.796875 294.5703125 C-148.291875 292.0953125 -148.291875 292.0953125 -148.796875 289.5703125 C-156.32529503 288.2300256 -163.85589986 287.13857961 -171.45117188 286.26806641 C-174.38274217 285.9222803 -176.98586861 285.50731463 -179.796875 284.5703125 C-189.81263933 283.82835336 -189.81263933 283.82835336 -198.796875 287.5703125 Z M-117.796875 290.5703125 C-119.24650795 292.0649409 -119.24650795 292.0649409 -120.546875 294.0703125 C-123.69343689 298.49763576 -127.16837293 302.53387233 -130.796875 306.5703125 C-130.136875 306.9003125 -129.476875 307.2303125 -128.796875 307.5703125 C-126.76145534 306.70106548 -126.76145534 306.70106548 -124.484375 305.3828125 C-118.49935009 302.24571306 -112.28379984 300.39031179 -105.796875 298.5703125 C-106.9535427 295.10030939 -107.65414216 294.72329791 -110.671875 292.8828125 C-111.37054688 292.44582031 -112.06921875 292.00882812 -112.7890625 291.55859375 C-114.87249987 290.34950291 -114.87249987 290.34950291 -117.796875 290.5703125 Z M-132.796875 325.5703125 C-132.796875 326.2303125 -132.796875 326.8903125 -132.796875 327.5703125 C-133.725 327.8796875 -133.725 327.8796875 -134.671875 328.1953125 C-137.7472901 330.18528697 -137.99904845 332.04657855 -138.796875 335.5703125 C-139.19037974 340.91682844 -139.19037974 340.91682844 -136.796875 345.5703125 C-134.67310796 346.18855967 -134.67310796 346.18855967 -132.296875 346.3203125 C-131.5028125 346.39765625 -130.70875 346.475 -129.890625 346.5546875 C-127.73633389 346.72915686 -127.73633389 346.72915686 -125.796875 345.5703125 C-125.796875 344.9103125 -125.796875 344.2503125 -125.796875 343.5703125 C-125.136875 343.5703125 -124.476875 343.5703125 -123.796875 343.5703125 C-123.796875 342.9103125 -123.796875 342.2503125 -123.796875 341.5703125 C-122.806875 341.2403125 -121.816875 340.9103125 -120.796875 340.5703125 C-120.796875 339.9103125 -120.796875 339.2503125 -120.796875 338.5703125 C-119.806875 338.2403125 -118.816875 337.9103125 -117.796875 337.5703125 C-117.466875 336.5803125 -117.136875 335.5903125 -116.796875 334.5703125 C-113.53965039 332.53454712 -110.46305547 331.43006169 -106.734375 330.6953125 C-101.6061502 329.67313256 -96.93342074 327.76605158 -92.10546875 325.7890625 C-89.032228 324.65700687 -86.04225076 323.84096356 -82.86499023 323.08398438 C-79.40209668 322.2238819 -76.01078845 321.14444306 -72.609375 320.0703125 C-71.92423828 319.85761719 -71.23910156 319.64492188 -70.53320312 319.42578125 C-66.88798649 318.28204629 -63.32035147 317.04812011 -59.796875 315.5703125 C-60.291875 314.0853125 -60.291875 314.0853125 -60.796875 312.5703125 C-62.62818627 311.79401391 -62.62818627 311.79401391 -64.859375 311.4453125 C-65.59285156 311.29835938 -66.32632813 311.15140625 -67.08203125 311 C-73.85608577 309.92784749 -80.38202573 309.38834305 -87.234375 309.3828125 C-88.42643555 309.36444336 -88.42643555 309.36444336 -89.64257812 309.34570312 C-104.6661038 309.30903056 -121.79523028 315.09109225 -132.796875 325.5703125 Z " fill="#0C2B39" transform="translate(368.796875,85.4296875)"/>
<path d="M0 0 C0.99 0 1.98 0 3 0 C10.4542725 5.03584323 14.49871178 11.0218929 16.58984375 19.76342773 C17.29533922 23.61047774 17.33778471 27.41035766 17.3125 31.3125 C17.31121094 32.14628174 17.30992187 32.98006348 17.30859375 33.83911133 C17.22124984 39.45696265 16.40865189 44.34741413 14.69140625 49.71484375 C13.41918248 53.91965112 12.92949013 57.59268427 14.78515625 61.765625 C18.85933872 67.58214274 25.62210167 70.01832225 31.828125 72.96875 C43.0848734 78.35465528 54.70918546 85.54413636 63 95 C63 95.66 63 96.32 63 97 C63.59941406 97.25136719 64.19882812 97.50273437 64.81640625 97.76171875 C67.29362153 99.16650809 68.32960288 100.48305348 69.9375 102.8125 C71.70288899 105.2858144 73.28219445 107.26808472 75.5 109.375 C78.92711091 112.97346646 84 118.80946547 84 124 C84.66 124 85.32 124 86 124 C87.41785021 126.66604314 88.83430492 129.33281272 90.25 132 C90.64574219 132.74378906 91.04148437 133.48757813 91.44921875 134.25390625 C95.57981521 142.0410963 99.50194354 149.52137488 102 158 C102.35449219 159.08410156 102.70898438 160.16820312 103.07421875 161.28515625 C109.0137068 181.437735 107.77612949 203.27911895 98.125 222.0625 C91.48317342 233.1491113 82.45935904 243.23278918 73 252 C72.34 252 71.68 252 71 252 C71.33 248.04 71.66 244.08 72 240 C65.96471007 236.98235504 60.27488001 234.68556461 53.6875 233.1875 C45.3858258 231.21387973 37.3869726 228.56721809 29.32617188 225.78662109 C26.9398072 224.97964513 24.54342758 224.21355816 22.140625 223.45703125 C21.34253418 223.20228027 20.54444336 222.9475293 19.72216797 222.68505859 C18.21336608 222.20451445 16.70212244 221.73153547 15.18798828 221.26806641 C10.59885187 219.78739034 6.81423764 217.79880417 2.78613281 215.15307617 C0.66884514 213.78621591 -1.51922332 212.72770781 -3.8125 211.6875 C-9.72022916 208.81594124 -14.77262424 204.94010187 -20 201 C-20.99 200.34 -21.98 199.68 -23 199 C-23 198.34 -23 197.68 -23 197 C-23.99 196.67 -24.98 196.34 -26 196 C-27.37482707 194.36739286 -28.70647667 192.69774938 -30 191 C-30.45761719 190.55140625 -30.91523438 190.1028125 -31.38671875 189.640625 C-33.39025271 187.60313284 -35.06864155 185.38823246 -36.8125 183.125 C-42.47892096 176.04712509 -47.16958089 172.41364789 -56 170 C-56.64674221 160.13718136 -54.06325512 151.56044737 -47.75390625 143.84375 C-38.91263495 134.54958507 -29.10416536 130.60628175 -16.421875 129.76171875 C-3.37851376 129.49807634 5.17754097 133.07436495 16 140 C17.38058594 140.77150391 17.38058594 140.77150391 18.7890625 141.55859375 C19.51867187 142.03425781 20.24828125 142.50992188 21 143 C21 143.66 21 144.32 21 145 C20.44054687 144.9278125 19.88109375 144.855625 19.3046875 144.78125 C6.11904258 142.71698334 6.11904258 142.71698334 -6 146 C-6.36297936 147.97747122 -6.36297936 147.97747122 -6.1875 150.125 C-6.125625 151.40375 -6.06375 152.6825 -6 154 C-2.04 154.99 1.92 155.98 6 157 C6 157.33 6 157.66 6 158 C5.2886792 158.01981934 4.5773584 158.03963867 3.84448242 158.06005859 C0.62511184 158.15524867 -2.5936045 158.26495229 -5.8125 158.375 C-7.49182617 158.42140625 -7.49182617 158.42140625 -9.20507812 158.46875 C-10.27822266 158.50742187 -11.35136719 158.54609375 -12.45703125 158.5859375 C-13.44678955 158.6173584 -14.43654785 158.6487793 -15.45629883 158.68115234 C-18.24075094 158.83773433 -18.24075094 158.83773433 -21 161 C-21.25030977 163.58380177 -21.25030977 163.58380177 -21 166 C-20.25621094 165.84144531 -19.51242187 165.68289063 -18.74609375 165.51953125 C-1.07390304 163.06864349 16.69500928 165.25945587 34 169 C33.67 167.02 33.34 165.04 33 163 C38.55895451 164.71366267 43.52146203 167.20296545 48.68359375 169.85546875 C52.56833676 171.19613978 55.02840425 170.86862966 59 170 C59.55090068 159.53288714 55.54879382 153.80227389 49 146 C48.01 144.78957031 48.01 144.78957031 47 143.5546875 C35.51000442 130.07928827 19.47457232 118.71737345 1.49780273 116.58447266 C-2.08820872 116.39007837 -5.65908602 116.29288822 -9.25 116.25 C-10.48363281 116.22035156 -11.71726562 116.19070313 -12.98828125 116.16015625 C-15.99224975 116.09029652 -18.9954801 116.03718783 -22 116 C-22 115.67 -22 115.34 -22 115 C-13.585 114.01 -13.585 114.01 -5 113 C-5 112.34 -5 111.68 -5 111 C-4.175 110.505 -3.35 110.01 -2.5 109.5 C5.41577446 104.42866459 11.53927817 94.96568555 14 86 C14.76487282 78.7410628 15.31648138 72.24109808 11 66 C10.7525 65.278125 10.505 64.55625 10.25 63.8125 C8.63774117 61.4747247 6.9322503 60.8994095 4.21875 60.23828125 C-0.20966128 59.76269483 -4.60543056 60.41193827 -9 61 C-9 59.68 -9 58.36 -9 57 C-7.20703125 55.54296875 -7.20703125 55.54296875 -4.8125 54.1875 C2.10057088 49.85733472 6.1228173 43.97080654 8 36 C9.14559572 27.61759232 7.20890744 19.63854175 2.38671875 12.66796875 C-3.72472982 5.36404241 -9.62430732 2.15524099 -19 1 C-23.9972332 0.57334712 -28.99067571 0.25380576 -34 0 C-27.2966157 -6.7033843 -7.81716877 -3.75224101 0 0 Z M-24.9375 134.0625 C-25.97801514 134.39096924 -25.97801514 134.39096924 -27.03955078 134.72607422 C-34.11154702 137.12086799 -39.81086509 140.71629764 -44 147 C-44.33343551 149.54207971 -44.33343551 149.54207971 -44 152 C-43.34 152.66 -42.68 153.32 -42 154 C-38.22540316 154 -36.10153571 152.43123826 -33.25 150.1875 C-23.35343865 142.4447869 -12.21967871 140.8679398 0 140 C-1.66122124 136.55687051 -2.99536838 133.81670177 -6.6875 132.3125 C-13.19537368 131.43305761 -18.74771598 132.08182955 -24.9375 134.0625 Z " fill="#53595E" transform="translate(277,140)"/>
<path d="M0 0 C2.94150977 0.03700012 5.88176541 0.04101386 8.82348633 0.04052734 C18.33399377 0.07576033 27.52976824 0.3033038 36.84887695 2.41162109 C37.53602783 2.55212891 38.22317871 2.69263672 38.93115234 2.83740234 C67.65471458 8.90403281 94.33787194 21.60869708 116.84887695 40.41162109 C117.36675781 40.8339502 117.88463867 41.2562793 118.41821289 41.69140625 C148.57796462 66.29634089 168.48093067 97.31914389 178.72387695 134.78662109 C179.01020996 135.83124512 179.29654297 136.87586914 179.59155273 137.95214844 C183.00762766 151.02690305 184.1619191 163.6691436 184.03637695 177.16162109 C184.03491388 178.50667254 184.03426087 179.85172511 184.03442383 181.19677734 C183.94979621 200.20978258 183.94979621 200.20978258 181.84887695 204.41162109 C181.74265222 205.95187979 181.66412026 207.49408297 181.59887695 209.03662109 C180.83754291 218.47217091 177.45918789 227.71329055 173.84887695 236.41162109 C171.66213317 234.22487731 171.3710107 233.26318488 170.63012695 230.34130859 C170.42000977 229.52662109 170.20989258 228.71193359 169.9934082 227.87255859 C169.67436523 226.59251953 169.67436523 226.59251953 169.34887695 225.28662109 C169.02983398 224.04138672 169.02983398 224.04138672 168.7043457 222.77099609 C168.28026294 221.11108932 167.86357421 219.44927572 167.4543457 217.78564453 C167.0730449 216.29057639 166.66280135 214.8023091 166.2121582 213.32666016 C164.9360763 209.00810781 164.87857288 205.6777903 165.52954102 201.15771484 C167.96042867 180.25356779 166.27544035 158.65890319 160.84887695 138.41162109 C160.67308105 137.73035156 160.49728516 137.04908203 160.31616211 136.34716797 C157.69980445 126.37247109 153.83022108 116.28438482 149.1652832 107.09521484 C147.84887695 104.41162109 147.84887695 104.41162109 147.84887695 102.41162109 C147.18887695 102.41162109 146.52887695 102.41162109 145.84887695 102.41162109 C145.45055664 101.58017578 145.05223633 100.74873047 144.6418457 99.89208984 C144.11204102 98.80541016 143.58223633 97.71873047 143.03637695 96.59912109 C142.51430664 95.52017578 141.99223633 94.44123047 141.4543457 93.32958984 C140.0602446 90.79578565 138.91617598 89.34148195 136.84887695 87.41162109 C136.27137695 86.33912109 135.69387695 85.26662109 135.09887695 84.16162109 C133.11739245 80.55410924 130.602087 78.04484273 127.6340332 75.22802734 C125.83219365 73.39464574 124.39398055 71.50827305 122.91137695 69.41162109 C119.72089145 65.05184771 116.04970248 61.78333632 111.84887695 58.41162109 C110.90012695 57.63818359 109.95137695 56.86474609 108.97387695 56.06787109 C101.04477221 49.71665447 92.6982278 44.38417776 83.84887695 39.41162109 C83.21127441 39.05293945 82.57367188 38.69425781 81.91674805 38.32470703 C69.29132324 31.28256111 56.78422186 26.06358534 42.71118164 22.67138672 C40.58495455 22.15826118 38.46296153 21.62983926 36.34106445 21.09912109 C8.63399721 14.27115574 -20.27811734 16.02974575 -47.15112305 25.41162109 C-48.1359668 25.70681641 -49.12081055 26.00201172 -50.13549805 26.30615234 C-63.6574052 30.39634249 -78.71276574 37.01769349 -90.15112305 45.41162109 C-90.48112305 46.40162109 -90.81112305 47.39162109 -91.15112305 48.41162109 C-92.7956543 49.14990234 -92.7956543 49.14990234 -94.96362305 49.72412109 C-107.88592913 53.66686944 -116.96524603 59.48668758 -123.65112305 71.30224609 C-124.98586426 74.0690534 -125.71521613 76.36845679 -126.33862305 79.34912109 C-127.57620853 84.21437901 -130.38494465 87.06822606 -133.83862305 90.53662109 C-142.97330149 99.77605818 -147.9060111 110.83853853 -151.16674805 123.34912109 C-151.98151168 125.88394129 -152.85814318 127.78557061 -154.11987305 130.09130859 C-156.66105356 135.05422242 -157.5631241 140.05733097 -158.40112305 145.53662109 C-158.65369873 147.18259277 -158.65369873 147.18259277 -158.91137695 148.86181641 C-160.31763318 159.28834433 -160.52766127 169.65429436 -160.52612305 180.16162109 C-160.52884216 181.36724701 -160.52884216 181.36724701 -160.53161621 182.597229 C-160.52803089 196.63126149 -159.17270985 209.9784905 -155.33862305 223.53662109 C-154.93897339 224.96397583 -154.93897339 224.96397583 -154.53125 226.42016602 C-150.73930576 239.65970141 -144.77349363 251.40082352 -138.15112305 263.41162109 C-137.63549805 264.35263672 -137.11987305 265.29365234 -136.58862305 266.26318359 C-131.29459783 275.49764804 -124.68278246 283.91658239 -117.15112305 291.41162109 C-115.95742481 292.91133095 -114.78870408 294.43141097 -113.65112305 295.97412109 C-111.09877705 299.33629241 -108.52874548 301.85281622 -105.15112305 304.41162109 C-105.15112305 305.07162109 -105.15112305 305.73162109 -105.15112305 306.41162109 C-104.16112305 306.74162109 -103.17112305 307.07162109 -102.15112305 307.41162109 C-102.15112305 308.07162109 -102.15112305 308.73162109 -102.15112305 309.41162109 C-101.16112305 309.74162109 -100.17112305 310.07162109 -99.15112305 310.41162109 C-98.01049805 312.33740234 -98.01049805 312.33740234 -96.90112305 314.72412109 C-94.44818316 319.31608296 -92.16160826 321.81509374 -87.15112305 323.41162109 C-85.6767999 323.6002282 -84.1962742 323.74449339 -82.71362305 323.84912109 C-76.44118235 324.29868169 -72.26635349 327.56079446 -67.65112305 331.59912109 C-66.15112305 333.41162109 -66.15112305 333.41162109 -66.15112305 335.41162109 C-60.92913689 337.52864251 -56.80774174 338.54320103 -51.15112305 338.78662109 C-44.71307193 339.14472498 -38.07437529 339.67240958 -32.15112305 342.41162109 C-31.01034647 345.83395081 -31.05297188 348.49835327 -31.08862305 352.09912109 C-31.09764648 353.27861328 -31.10666992 354.45810547 -31.1159668 355.67333984 C-31.13336914 357.02878906 -31.13336914 357.02878906 -31.15112305 358.41162109 C-37.60609223 358.84195237 -43.00921065 357.30850064 -49.15112305 355.41162109 C-50.29967773 355.07130859 -51.44823242 354.73099609 -52.6315918 354.38037109 C-62.35702771 351.34693692 -71.1832041 347.21493861 -80.15112305 342.41162109 C-80.82852539 342.05551758 -81.50592773 341.69941406 -82.20385742 341.33251953 C-95.06357805 334.54849787 -106.07356329 326.48864492 -116.7644043 316.60693359 C-118.34067657 315.15707268 -119.94227632 313.73422007 -121.5690918 312.34130859 C-154.70771366 283.7862481 -174.51479262 239.57897742 -178.15112305 196.41162109 C-178.52110502 189.85359575 -178.54067893 183.29075198 -178.52612305 176.72412109 C-178.52591156 175.84143555 -178.52570007 174.95875 -178.52548218 174.04931641 C-178.49452628 161.1059355 -177.90251997 148.88109561 -174.15112305 136.41162109 C-173.85431641 135.35612061 -173.85431641 135.35612061 -173.55151367 134.27929688 C-172.23449121 129.59832628 -170.74899474 125.00427686 -169.15112305 120.41162109 C-168.77213867 119.31720703 -168.3931543 118.22279297 -168.00268555 117.09521484 C-161.31233753 98.79778654 -151.60866499 82.35593472 -139.15112305 67.41162109 C-137.94842773 65.89761719 -137.94842773 65.89761719 -136.72143555 64.35302734 C-135.91448242 63.34111328 -135.1075293 62.32919922 -134.27612305 61.28662109 C-133.53620117 60.35591797 -132.7962793 59.42521484 -132.03393555 58.46630859 C-131.41260742 57.78826172 -130.7912793 57.11021484 -130.15112305 56.41162109 C-129.49112305 56.41162109 -128.83112305 56.41162109 -128.15112305 56.41162109 C-127.93842773 55.86634766 -127.72573242 55.32107422 -127.5065918 54.75927734 C-125.66750861 51.57400647 -123.15792657 49.29910289 -120.46362305 46.84912109 C-119.889104 46.32535889 -119.31458496 45.80159668 -118.72265625 45.26196289 C-107.57355545 35.28044863 -95.42492079 27.27045932 -82.15112305 20.41162109 C-81.42441406 20.03263672 -80.69770508 19.65365234 -79.94897461 19.26318359 C-70.9739165 14.63790505 -61.87868523 10.73244417 -52.27612305 7.59912109 C-51.47674316 7.33341309 -50.67736328 7.06770508 -49.85375977 6.79394531 C-33.43449243 1.70669033 -17.13462626 -0.22250885 0 0 Z " fill="#F3F7F7" transform="translate(247.151123046875,71.58837890625)"/>
<path d="M0 0 C2.61050087 0.6469578 5.23417842 1.21957567 7.86083984 1.79736328 C20.70968249 4.71035362 32.4807903 8.50020139 44.19287109 14.54345703 C44.9638916 14.94113281 45.73491211 15.33880859 46.52929688 15.74853516 C55.94448434 20.67286893 64.8132179 25.97710584 73.19287109 32.54345703 C73.97919922 33.13900391 74.76552734 33.73455078 75.57568359 34.34814453 C77.80711759 36.05008572 80.00583479 37.78493431 82.19287109 39.54345703 C82.85931641 40.07326172 83.52576172 40.60306641 84.21240234 41.14892578 C89.12650824 45.22947525 93.04971915 49.83342635 97.01708984 54.82861328 C99.46723831 57.88580033 102.04594595 60.79779516 104.68505859 63.69189453 C106.44817939 65.85697033 107.79275088 68.12870425 109.19287109 70.54345703 C109.72267578 71.39166016 110.25248047 72.23986328 110.79833984 73.11376953 C111.32041016 73.95681641 111.84248047 74.79986328 112.38037109 75.66845703 C112.91017578 76.51666016 113.43998047 77.36486328 113.98583984 78.23876953 C115.19287109 80.54345703 115.19287109 80.54345703 115.19287109 83.54345703 C115.85287109 83.54345703 116.51287109 83.54345703 117.19287109 83.54345703 C122.18542039 92.57253555 125.49203405 101.78479809 128.57226562 111.59594727 C129.08704001 113.21135058 129.63913989 114.81480417 130.20068359 116.41455078 C135.03895252 131.67224138 136.67066163 146.87594085 136.56787109 162.79345703 C136.56346008 163.53131439 136.55904907 164.26917175 136.55450439 165.02938843 C136.47330922 174.23044151 136.02850651 183.37727093 135.19287109 192.54345703 C133.52334368 190.03916591 132.30176782 187.76136407 131.05615234 185.04345703 C124.48728717 170.81273414 124.48728717 170.81273414 116.19287109 157.54345703 C115.53029297 156.61017578 114.86771484 155.67689453 114.18505859 154.71533203 C93.62359961 126.56308353 67.02101421 102.22077654 33.19287109 91.54345703 C33.15419922 89.56925781 33.15419922 89.56925781 33.11474609 87.55517578 C32.63850457 70.8214186 29.09222645 57.00944836 17.19287109 44.54345703 C5.92378906 34.69250667 -7.31672813 29.94971408 -22.18212891 30.10595703 C-23.19436523 30.11353027 -24.20660156 30.12110352 -25.24951172 30.12890625 C-32.71465793 30.29349026 -39.04260961 31.2232572 -45.80712891 34.54345703 C-46.73267578 34.96755859 -47.65822266 35.39166016 -48.61181641 35.82861328 C-56.29006689 39.64646913 -62.66866104 44.94854051 -68.40087891 51.31298828 C-69.80712891 52.54345703 -69.80712891 52.54345703 -72.80712891 52.54345703 C-73.75310422 51.12449406 -74.69295169 49.70093634 -75.59619141 48.25439453 C-80.02389495 41.99847791 -87.23789369 38.16821278 -93.80712891 34.54345703 C-94.66435547 34.01494141 -95.52158203 33.48642578 -96.40478516 32.94189453 C-101.25261035 30.94933262 -105.98785822 30.72123155 -111.18212891 30.35595703 C-112.20435547 30.27410156 -113.22658203 30.19224609 -114.27978516 30.10791016 C-116.78825525 29.90863917 -119.297032 29.72083891 -121.80712891 29.54345703 C-121.43411807 27.14720249 -121.18667645 25.87748909 -119.33520508 24.24804688 C-103.31215359 14.92517425 -86.55443653 7.83281891 -68.80712891 2.54345703 C-67.06689453 2.00785156 -67.06689453 2.00785156 -65.29150391 1.46142578 C-44.72668901 -3.95643465 -20.67913069 -5.23081754 0 0 Z " fill="#BFD0D7" transform="translate(277.80712890625,90.45654296875)"/>
<path d="M0 0 C1.39387915 0.6861417 2.78230703 1.38350966 4.1640625 2.09375 C30.54218147 15.58991578 66.30622717 15.84662188 94 7 C96.72631447 5.68389037 96.72631447 5.68389037 99.1875 4.125 C100.00605469 3.63257813 100.82460938 3.14015625 101.66796875 2.6328125 C104.08845582 1.04325314 104.08845582 1.04325314 106.1640625 -1.19921875 C106.76992188 -1.79347656 107.37578125 -2.38773438 108 -3 C110.1875 -2.9375 110.1875 -2.9375 112 -2 C112.33 -1.01 112.66 -0.02 113 1 C116.11332248 0.33131686 116.11332248 0.33131686 117.1875 -2.0625 C117.5896875 -3.0215625 117.5896875 -3.0215625 118 -4 C119.65 -3.67 121.3 -3.34 123 -3 C123.56450666 10.54815986 119.0232208 19.02696648 110 29 C106.5 32 106.5 32 104 32 C104 32.66 104 33.32 104 34 C98.68162083 35.10603461 93.36931581 36.1098464 88 36.9375 C72.28718284 39.59967157 58.17813359 46.7359457 48.0703125 59.421875 C39.58460364 71.73161576 37.19148797 84.41499934 37 99 C36.9616337 100.36590515 36.92257284 101.73179097 36.8828125 103.09765625 C36.76798313 109.57275698 37.01994387 114.85634759 39 121 C21.33708877 112.76258848 8.35211816 94.47346917 1 77 C-0.69080479 71.74797634 -2 66.78249119 -2 61.25 C-3.4702017 56.47184449 -6.63629259 54.95581069 -10.6953125 52.23046875 C-14.27614795 49.81361645 -17.67231641 47.23645413 -21.0625 44.5625 C-21.95243652 43.86265991 -21.95243652 43.86265991 -22.86035156 43.14868164 C-27.33536454 39.59764173 -31.61397846 35.86729571 -35.81640625 31.99609375 C-38.28609619 29.73847021 -40.83517814 27.59648815 -43.4296875 25.484375 C-48.01183827 21.1529887 -50.39971172 16.42200167 -52.75 10.6875 C-53.06582031 9.96626953 -53.38164063 9.24503906 -53.70703125 8.50195312 C-55.80262834 3.44439737 -56.56355329 -0.52296644 -56 -6 C-46.95116117 -21.2938121 -11.62685552 -5.07175217 0 0 Z " fill="#F4F7F6" transform="translate(168,219)"/>
<path d="M0 0 C1.16208984 0.03383789 1.16208984 0.03383789 2.34765625 0.06835938 C4.23262994 0.12653758 6.1165896 0.21618924 8 0.3125 C8 0.6425 8 0.9725 8 1.3125 C7.16597656 1.45945313 6.33195313 1.60640625 5.47265625 1.7578125 C-5.41868051 3.9285944 -12.49096836 7.38288798 -18.90625 16.578125 C-22.66267501 22.5347418 -21.64242088 31.43966475 -21 38.3125 C-20.20239035 41.2939579 -19.250153 43.81219401 -17.875 46.5625 C-17 48.3125 -17 48.3125 -17 50.3125 C-16.34 50.3125 -15.68 50.3125 -15 50.3125 C-15 50.9725 -15 51.6325 -15 52.3125 C-14.360625 52.415625 -13.72125 52.51875 -13.0625 52.625 C-12.381875 52.851875 -11.70125 53.07875 -11 53.3125 C-10.67 54.3025 -10.34 55.2925 -10 56.3125 C-1.52291325 60.1131127 8.05374675 60.30055628 17 58.3125 C17.33 59.6325 17.66 60.9525 18 62.3125 C16.10642909 63.75306352 14.21027278 65.1899901 12.3125 66.625 C11.78205078 67.02912109 11.25160156 67.43324219 10.70507812 67.84960938 C-4.02056997 78.96160149 -22.94171144 79.07658446 -40.77587891 76.98730469 C-54.64090951 74.88723924 -68.79467832 71.27273982 -81.1875 64.63671875 C-87.84319345 61.50299642 -94.98235563 59.47668263 -102 57.3125 C-103.05445313 56.97863281 -104.10890625 56.64476562 -105.1953125 56.30078125 C-113.98210233 53.79201814 -122.92075579 53.60505342 -132 53.3125 C-129.07970654 43.11382921 -124.0070371 33.47763387 -116 26.3125 C-112.5625 24.8125 -112.5625 24.8125 -110 24.3125 C-109.34 25.3025 -108.68 26.2925 -108 27.3125 C-104.7035469 26.88715121 -102.03312596 25.91326421 -99.0625 24.5 C-89.33496108 20.08133423 -79.70728198 17.52584255 -69 18.3125 C-69.495 15.3425 -69.495 15.3425 -70 12.3125 C-61.21655049 11.80791886 -53.01773765 12.59256315 -46 18.3125 C-46.99 21.2825 -47.98 24.2525 -49 27.3125 C-43.98464948 26.98289784 -43.98464948 26.98289784 -40 24.3125 C-40 24.9725 -40 25.6325 -40 26.3125 C-39.05125 25.6525 -38.1025 24.9925 -37.125 24.3125 C-34 22.3125 -34 22.3125 -32 22.3125 C-31.84156616 21.41712524 -31.84156616 21.41712524 -31.67993164 20.50366211 C-30.90013824 17.99068337 -30.0345804 17.0284522 -28.12109375 15.25390625 C-27.52876953 14.70283203 -26.93644531 14.15175781 -26.32617188 13.58398438 C-25.3912793 12.73803711 -25.3912793 12.73803711 -24.4375 11.875 C-23.84130859 11.31490234 -23.24511719 10.75480469 -22.63085938 10.17773438 C-15.4712424 3.60132307 -9.97762673 -0.56199804 0 0 Z M-79.4375 37.25 C-81.97050725 40.59356957 -81.30544933 44.26529637 -81 48.3125 C-79.68 48.6425 -78.36 48.9725 -77 49.3125 C-76.67 48.6525 -76.34 47.9925 -76 47.3125 C-74 45.3125 -74 45.3125 -72.01953125 45.046875 C-70.01111857 45.06109385 -68.00415878 45.18107975 -66 45.3125 C-65.67 43.6625 -65.34 42.0125 -65 40.3125 C-67.90692689 37.4936618 -69.48586544 36.37563933 -73.5625 35.875 C-76.89273641 36.16012958 -76.89273641 36.16012958 -79.4375 37.25 Z " fill="#2F3539" transform="translate(250,139.6875)"/>
<path d="M0 0 C0.33 0 0.66 0 1 0 C1.01401855 0.95700806 1.01401855 0.95700806 1.02832031 1.93334961 C1.57000393 31.50555756 9.27857652 59.81342536 30 82 C30.92144075 83.0345297 31.84060085 84.07109395 32.7578125 85.109375 C38.41059671 91.48648329 38.41059671 91.48648329 44.9375 96.9375 C48.9876972 100.21028968 49.67799392 104.66085459 50.95703125 109.53125 C52.35803411 114.19076513 54.51782146 118.27300695 56.828125 122.5390625 C58 125 58 125 58 128 C55.8125 129.4375 55.8125 129.4375 53 131 C50.08829743 132.49602502 50.08829743 132.49602502 48 135 C47.37921734 138.09230989 47.37500664 140.91149114 48 144 C48.5053125 144.70511719 49.010625 145.41023437 49.53125 146.13671875 C52.10139411 151.14713267 51.11438626 156.65260696 50.8828125 162.1640625 C50.71630732 168.12406158 50.71630732 168.12406158 52.48828125 173.73046875 C54.19755918 177.42727915 54.312445 179.89761174 54.1875 183.9375 C54.14689453 185.65259766 54.14689453 185.65259766 54.10546875 187.40234375 C54.05326172 188.68818359 54.05326172 188.68818359 54 190 C47.50166845 184.55039055 41.88029821 179.03757563 36.84375 172.18359375 C35.03496738 169.89398361 35.03496738 169.89398361 32.52734375 168.046875 C29.81997823 165.85420184 28.06718596 163.65349667 26.0625 160.8125 C25.37285156 159.83539063 24.68320313 158.85828125 23.97265625 157.8515625 C23.32167969 156.91054688 22.67070313 155.96953125 22 155 C21.48308594 154.26523437 20.96617188 153.53046875 20.43359375 152.7734375 C16.23898834 146.67011519 12.55830207 140.2694153 8.98925781 133.78662109 C8.06957512 132.12565419 7.12558179 130.47821208 6.1796875 128.83203125 C0.22024799 117.86185225 -2.80247401 106.00567969 -6 94 C-6.20028809 93.2894043 -6.40057617 92.57880859 -6.60693359 91.84667969 C-9.60355706 80.82683855 -9.2785752 69.33227419 -9.3125 58 C-9.31511841 57.16450623 -9.31773682 56.32901245 -9.32043457 55.46820068 C-9.32408269 44.56163723 -8.91838454 33.92220611 -7.25 23.125 C-7.09313721 22.10019531 -6.93627441 21.07539063 -6.7746582 20.01953125 C-5.85055187 14.77893977 -4.53363141 10.38406236 -1.89355469 5.74951172 C-0.92765401 3.85835208 -0.44248507 2.07080736 0 0 Z " fill="#BFD0D6" transform="translate(95,194)"/>
<path d="M0 0 C1.485 0.99 1.485 0.99 3 2 C3 2.66 3 3.32 3 4 C3.556875 4.226875 4.11375 4.45375 4.6875 4.6875 C6.99947845 5.99970399 8.57939356 7.49705332 10.4140625 9.3984375 C16.03143363 15.07115219 22.11716721 20.198478 28.4375 25.0625 C28.9826123 25.486521 29.52772461 25.91054199 30.08935547 26.34741211 C32.72332101 28.3694896 35.32041136 30.19398517 38.16796875 31.91796875 C42.57517172 34.64845513 45.41149692 36.43425785 47.27734375 41.3984375 C48.0625 45.125 48.0625 45.125 48.53515625 48.6328125 C50.39962531 62.13846236 58.92269126 75.24111859 68 85 C69.13308594 86.21816406 69.13308594 86.21816406 70.2890625 87.4609375 C77.04184465 94.47748613 77.04184465 94.47748613 85 100 C86.32 100 87.64 100 89 100 C89.33 98.02 89.66 96.04 90 94 C92.54027521 96.30866188 94.0802849 98.69983562 95.75 101.6875 C98.30851351 106.07811489 101.19194419 109.72222676 104.6796875 113.40625 C106 115 106 115 106 117 C90.27122995 117.99865207 78.24138544 107.39323728 66.9453125 97.55078125 C65.13343851 95.98161187 63.2875141 94.44963664 61.390625 92.984375 C50.7750777 84.17277691 40.60163788 69.4587257 39 55.6875 C38.09405792 50.10548738 36.62157239 46.90059544 32.0625 43.375 C31.08667969 42.68792969 30.11085937 42.00085938 29.10546875 41.29296875 C17.34940447 32.61270494 4.93582597 17.69133635 0 4 C0 2.68 0 1.36 0 0 Z " fill="#BBC8CC" transform="translate(120,239)"/>
<path d="M0 0 C0.83337891 0.00080566 1.66675781 0.00161133 2.52539062 0.00244141 C22.13345655 0.1931377 22.13345655 0.1931377 28.125 4.1875 C28.125 4.8475 28.125 5.5075 28.125 6.1875 C19.91921794 9.64954449 11.78101237 12.1451413 3.16162109 14.3046875 C-2.82297596 15.83359038 -8.40832659 17.79442049 -14.1328125 20.125 C-16.56469187 21.06726665 -18.90257288 21.78073137 -21.4375 22.375 C-25.38530136 23.28858548 -25.38530136 23.28858548 -28.875 25.1875 C-30.14304566 27.2210948 -30.14304566 27.2210948 -30.875 29.1875 C-31.535 29.1875 -32.195 29.1875 -32.875 29.1875 C-33.205 30.1775 -33.535 31.1675 -33.875 32.1875 C-34.535 32.1875 -35.195 32.1875 -35.875 32.1875 C-35.875 32.8475 -35.875 33.5075 -35.875 34.1875 C-36.535 34.1875 -37.195 34.1875 -37.875 34.1875 C-37.875 34.8475 -37.875 35.5075 -37.875 36.1875 C-40.33451456 37.41725728 -41.65756624 37.20218511 -44.375 36.9375 C-45.1690625 36.87046875 -45.963125 36.8034375 -46.78125 36.734375 C-48.875 36.1875 -48.875 36.1875 -50.875 33.1875 C-51.41096197 27.61349551 -50.48131265 24.01400492 -47.875 19.1875 C-46.885 18.8575 -45.895 18.5275 -44.875 18.1875 C-44.875 17.5275 -44.875 16.8675 -44.875 16.1875 C-33.17208163 4.95491168 -15.91444996 -0.01592719 0 0 Z " fill="#2D343A" transform="translate(280.875,394.8125)"/>
<path d="M0 0 C-1.53472968 4.72224516 -3.23945126 9.35855331 -5 14 C-3.98164062 14.01417969 -2.96328125 14.02835938 -1.9140625 14.04296875 C9.33816173 14.36019786 19.32480411 16.51482622 30 20 C30.65693848 20.21205078 31.31387695 20.42410156 31.99072266 20.64257812 C37.74939362 22.52718037 43.20649799 24.56594389 48.55078125 27.421875 C54.67564968 30.52984513 61.04279634 32.12078734 67.6875 33.75 C68.87150391 34.05292969 70.05550781 34.35585937 71.27539062 34.66796875 C90.3803456 39.48434395 111.10019592 40.29993469 130 34 C130 36.64 130 39.28 130 42 C130.66 42.33 131.32 42.66 132 43 C130.33546212 43.48651015 128.66822271 43.96377915 127 44.4375 C126.071875 44.70433594 125.14375 44.97117188 124.1875 45.24609375 C109.94631981 48.6144121 92.86735005 48.80347821 78.78515625 44.77734375 C75.91296737 43.97570898 73.14248061 43.5691686 70.1875 43.1875 C59.15333028 41.40872821 48.91824004 36.46084291 38.8125 31.875 C29.34463727 27.58235021 19.52208747 23.4302046 9 23 C7.82050781 22.9484375 6.64101562 22.896875 5.42578125 22.84375 C-4.21401422 22.5831097 -4.21401422 22.5831097 -13 26 C-13.71405674 16.32056419 -11.56470245 10.86561669 -5.375 3.5 C-2.29230769 0 -2.29230769 0 0 0 Z " fill="#6E757A" transform="translate(124,178)"/>
<path d="M0 0 C1.04027344 0.00773438 1.04027344 0.00773438 2.1015625 0.015625 C7.22061012 0.09561012 7.22061012 0.09561012 8.375 1.25 C9.05768138 2.57520503 9.7257041 3.90812182 10.375 5.25 C9.385 5.25 8.395 5.25 7.375 5.25 C6.715 4.59 6.055 3.93 5.375 3.25 C-0.0243251 2.563929 -0.0243251 2.563929 -4.625 4.8125 C-5.9828232 8.12219404 -5.94714498 10.70640517 -5.625 14.25 C-4.01840087 17.40241237 -4.01840087 17.40241237 -1.6015625 17.71875 C3.56595562 17.84302384 3.56595562 17.84302384 7.8125 15.125 C9.39538715 12.21248765 10.48483383 9.43976211 11.375 6.25 C12.035 6.25 12.695 6.25 13.375 6.25 C13.045 4.27 12.715 2.29 12.375 0.25 C14.025 0.25 15.675 0.25 17.375 0.25 C17.045 2.23 16.715 4.21 16.375 6.25 C17.695 6.25 19.015 6.25 20.375 6.25 C21.5 11.875 21.5 11.875 20.375 15.25 C21.365 15.25 22.355 15.25 23.375 15.25 C23.375 16.24 23.375 17.23 23.375 18.25 C23.705 18.58 24.035 18.91 24.375 19.25 C24.375 20.24 24.375 21.23 24.375 22.25 C23.715 22.25 23.055 22.25 22.375 22.25 C22.271875 23.178125 22.16875 24.10625 22.0625 25.0625 C21.3687139 28.27914465 21.03254784 29.41015919 18.375 31.25 C17.385 31.25 16.395 31.25 15.375 31.25 C15.375 31.91 15.375 32.57 15.375 33.25 C16.035 33.25 16.695 33.25 17.375 33.25 C16.715 34.57 16.055 35.89 15.375 37.25 C10.55139811 37.44294408 6.87853262 37.00747614 2.375 35.25 C2.375 34.59 2.375 33.93 2.375 33.25 C0.395 32.92 -1.585 32.59 -3.625 32.25 C-4.5843157 34.44514873 -4.5843157 34.44514873 -4.625 37.25 C-1.55104931 42.00065107 0.7283694 43.93683009 6.375 45.25 C6.045 47.23 5.715 49.21 5.375 51.25 C-0.51514345 50.90352097 -2.71959574 49.58933806 -6.625 45.25 C-7.615 44.92 -8.605 44.59 -9.625 44.25 C-9.625 43.59 -9.625 42.93 -9.625 42.25 C-10.285 42.25 -10.945 42.25 -11.625 42.25 C-12.2759259 41.00264433 -12.92051669 39.75198168 -13.5625 38.5 C-13.92214844 37.80390625 -14.28179687 37.1078125 -14.65234375 36.390625 C-17.91702086 29.20571313 -17.66942065 19.94460925 -16.625 12.25 C-15.16935618 8.62010337 -13.35725738 6.02214435 -10.625 3.25 C-10.22152344 2.68667969 -9.81804687 2.12335938 -9.40234375 1.54296875 C-6.53878701 -0.54019011 -3.39645043 -0.10214889 0 0 Z " fill="#102D39" transform="translate(244.625,147.75)"/>
<path d="M0 0 C5.44028109 1.52419208 10.90028303 1.80994071 16.515625 2.25390625 C20.92406653 2.63956177 24.69658212 3.03828454 28.72265625 5.04296875 C28.72265625 6.36296875 28.72265625 7.68296875 28.72265625 9.04296875 C28.06265625 9.04296875 27.40265625 9.04296875 26.72265625 9.04296875 C26.47515625 9.66171875 26.22765625 10.28046875 25.97265625 10.91796875 C24.49494863 13.43007171 23.28310448 13.80404219 20.72265625 15.04296875 C20.22765625 16.52796875 20.22765625 16.52796875 19.72265625 18.04296875 C18.40265625 18.04296875 17.08265625 18.04296875 15.72265625 18.04296875 C15.22765625 19.52796875 15.22765625 19.52796875 14.72265625 21.04296875 C10.1321527 23.93256993 5.17907737 25.8414694 -0.27734375 25.04296875 C-2.27734375 23.04296875 -2.27734375 23.04296875 -2.47265625 20.66015625 C-2.44945312 19.75523437 -2.42625 18.8503125 -2.40234375 17.91796875 C-2.38429687 17.00789063 -2.36625 16.0978125 -2.34765625 15.16015625 C-2.32445312 14.46148437 -2.30125 13.7628125 -2.27734375 13.04296875 C-2.93734375 13.04296875 -3.59734375 13.04296875 -4.27734375 13.04296875 C-4.27734375 12.05296875 -4.27734375 11.06296875 -4.27734375 10.04296875 C-6.21476716 10.01593494 -8.15229854 9.9965575 -10.08984375 9.98046875 C-11.70826172 9.96306641 -11.70826172 9.96306641 -13.359375 9.9453125 C-16.34246544 9.90672109 -16.34246544 9.90672109 -19.27734375 11.04296875 C-20.67174039 11.10962251 -22.0690425 11.12835074 -23.46484375 11.10546875 C-25.35203125 11.07453125 -25.35203125 11.07453125 -27.27734375 11.04296875 C-27.02734375 8.66796875 -27.02734375 8.66796875 -26.27734375 6.04296875 C-24.21484375 4.73046875 -24.21484375 4.73046875 -22.27734375 4.04296875 C-22.27734375 3.38296875 -22.27734375 2.72296875 -22.27734375 2.04296875 C-15.81152488 -2.39073562 -7.34412854 -2.14459057 0 0 Z " fill="#2E353C" transform="translate(192.27734375,370.95703125)"/>
<path d="M0 0 C7.9581225 6.05035341 12.96389825 11.9891664 15 22 C15.93298531 30.36859547 14.21707676 37.24106003 9.4921875 44.23046875 C4.77283993 50.0802647 -1.47591042 54.64988299 -9 56 C-10.91561254 56.06688591 -12.83335592 56.08531719 -14.75 56.0625 C-15.73484375 56.05347656 -16.7196875 56.04445312 -17.734375 56.03515625 C-18.48203125 56.02355469 -19.2296875 56.01195312 -20 56 C-20.38218767 54.34385343 -20.71395102 52.67542976 -21 51 C-19.19799391 49.19799391 -16.30946669 49.78454594 -13.875 49.6875 C-5.65947777 49.07761407 -1.71594674 47.0695061 3.875 40.9375 C7.80962956 36.34121748 8.11340395 33.01040925 8 27 C6.68 26.34 5.36 25.68 4 25 C4.33 23.68 4.66 22.36 5 21 C5.99 21 6.98 21 8 21 C8.33 19.68 8.66 18.36 9 17 C7.68 17 6.36 17 5 17 C2.75 15 2.75 15 1 13 C0.21625 13.99 -0.5675 14.98 -1.375 16 C-2.24125 16.99 -3.1075 17.98 -4 19 C-4.66 19 -5.32 19 -6 19 C-6 16.03 -6 13.06 -6 10 C-7.32 10.33 -8.64 10.66 -10 11 C-10 8.37886292 -9.68707555 6.49064888 -9 4 C-10.65 4 -12.3 4 -14 4 C-13.67 5.98 -13.34 7.96 -13 10 C-14.32 10.33 -15.64 10.66 -17 11 C-17.103125 10.38125 -17.20625 9.7625 -17.3125 9.125 C-17.87525373 6.63473516 -17.87525373 6.63473516 -21 5 C-22.32 5 -23.64 5 -25 5 C-29 5 -29 5 -32 3 C-22.82300272 -3.71487606 -10.16527293 -6.13752328 0 0 Z " fill="#0A2632" transform="translate(271,144)"/>
<path d="M0 0 C2.7162093 0.62288728 5.19772221 1.42644374 7.7578125 2.5234375 C8.81174194 2.96961426 8.81174194 2.96961426 9.88696289 3.42480469 C10.62551514 3.73836914 11.36406738 4.05193359 12.125 4.375 C22.42809575 8.66046386 32.39349821 11.40053815 43.36328125 13.3515625 C45.35778246 13.70718785 47.35055452 14.07842803 49.32763672 14.52075195 C52.37241199 15.06678647 55.30287615 15.21383949 58.39453125 15.31640625 C59.59658203 15.35830078 60.79863281 15.40019531 62.03710938 15.44335938 C63.90592773 15.50233398 63.90592773 15.50233398 65.8125 15.5625 C67.07771484 15.60568359 68.34292969 15.64886719 69.64648438 15.69335938 C72.76421889 15.7992447 75.88203035 15.90132405 79 16 C78.38125 16.268125 77.7625 16.53625 77.125 16.8125 C74.7004767 17.95556848 74.7004767 17.95556848 73 21 C74.32 21.66 75.64 22.32 77 23 C51.1264064 23.5391484 27.04761293 22.2106729 3.69580078 9.84741211 C1.82828473 8.86432086 1.82828473 8.86432086 -1 8 C-1.125 2.25 -1.125 2.25 0 0 Z " fill="#0C2B39" transform="translate(161,209)"/>
<path d="M0 0 C2.3125 2 2.3125 2 4 4 C4 4.66 4 5.32 4 6 C2.97261719 6.09796875 1.94523437 6.1959375 0.88671875 6.296875 C-11.7544872 7.61255177 -21.5910347 10.41012947 -32 18 C-35 20 -35 20 -37.125 19.6875 C-39 19 -39 19 -40 18 C-40.62058274 14.37993403 -40.06382741 13.09574112 -38 10 C-29.5702727 0.89309239 -11.68863861 -6.49368812 0 0 Z " fill="#7A8184" transform="translate(273,274)"/>
<path d="M0 0 C0.83515137 -0.01861084 1.67030273 -0.03722168 2.53076172 -0.05639648 C10.01473744 0.01957922 15.69319003 2.37879335 21.875 6.5 C21.545 7.16 21.215 7.82 20.875 8.5 C19.905625 8.005 18.93625 7.51 17.9375 7 C9.2305878 3.71935987 -4.52538047 3.94098143 -13.125 7.5 C-19.95996435 10.93864305 -25.63529116 15.62305544 -31.25 20.75 C-31.81879883 21.26933105 -32.38759766 21.78866211 -32.97363281 22.32373047 C-35.47407978 24.67965619 -37.02225238 26.19175713 -38.125 29.5 C-43.49642857 33.5 -43.49642857 33.5 -46.125 33.5 C-44.64956362 23.90966356 -33.76041221 13.09211859 -26.1875 7.5 C-17.57662369 2.0734231 -10.11647947 0.14765194 0 0 Z " fill="#59656B" transform="translate(256.125,132.5)"/>
<path d="M0 0 C1.21075195 0.00016113 2.42150391 0.00032227 3.66894531 0.00048828 C14.00165979 0.13036495 23.57354713 1.58853886 33.5 4.375 C34.18126953 4.56610352 34.86253906 4.75720703 35.56445312 4.95410156 C37.21142184 5.42148457 38.85599635 5.89729213 40.5 6.375 C40.5 7.695 40.5 9.015 40.5 10.375 C35.70358434 10.52016264 31.70271916 10.03371369 27.0625 8.875 C13.63382888 5.90650331 -0.82433393 7.1323913 -14.5 7.375 C-14.83 5.725 -15.16 4.075 -15.5 2.375 C-10.72662246 -0.80725169 -5.61690499 -0.00685918 0 0 Z " fill="#7A8184" transform="translate(270.5,298.625)"/>
<path d="M0 0 C2.2109885 0.42793326 3.98119242 0.99059621 6 2 C6 2.66 6 3.32 6 4 C8.10192697 4.24887295 10.20673964 4.4734719 12.3125 4.6875 C14.07013672 4.87892578 14.07013672 4.87892578 15.86328125 5.07421875 C18.98974619 5.30997785 18.98974619 5.30997785 20.91796875 3.51953125 C21.27503906 3.01808594 21.63210938 2.51664063 22 2 C24 3.75 24 3.75 26 6 C26 7.32 26 8.64 26 10 C26.66 10 27.32 10 28 10 C28.0928125 8.8553125 28.0928125 8.8553125 28.1875 7.6875 C29 5 29 5 31.5625 3.1875 C32.366875 2.795625 33.17125 2.40375 34 2 C32.47084163 7.60691402 30.45041356 10.25947937 25.76171875 13.58984375 C20.36007639 16.34796665 13.61694927 15.76146301 7.7734375 14.53125 C3.15597201 12.82258435 0.58049541 10.03202408 -2 6 C-1.81395349 1.81395349 -1.81395349 1.81395349 0 0 Z " fill="#3E494E" transform="translate(241,179)"/>
<path d="M0 0 C1 1 1 1 1.0625 3.5625 C1.041875 4.366875 1.02125 5.17125 1 6 C-0.36318359 6.12955078 -0.36318359 6.12955078 -1.75390625 6.26171875 C-12.05681101 7.41353067 -22.76183666 9.19516279 -31.75390625 14.6796875 C-34 16 -34 16 -36.8125 15.6875 C-37.534375 15.460625 -38.25625 15.23375 -39 15 C-38.61238811 12.65942053 -38.3206064 11.31970073 -36.6171875 9.62109375 C-32.56027131 6.86493768 -28.6131257 4.7498063 -24 3 C-23.36835938 2.72027344 -22.73671875 2.44054687 -22.0859375 2.15234375 C-14.96849297 -0.71329403 -7.55796577 -0.50129365 0 0 Z " fill="#61686C" transform="translate(180,152)"/>
<path d="M0 0 C3.55293571 0.86365829 5.00610232 2.49299686 6.9765625 5.48046875 C7.04486301 9.37359761 6.5131541 11.6085074 4.4765625 14.91796875 C0.73839937 17.25432071 -2.73432682 17.26843037 -7.0234375 16.48046875 C-9.0859375 14.91796875 -9.0859375 14.91796875 -10.0234375 12.48046875 C-10.53837567 8.43452595 -10.38479647 6.18813006 -8.5234375 2.54296875 C-5.66431572 0.18419328 -3.70237635 -0.25653169 0 0 Z " fill="#E8F0F2" transform="translate(248.0234375,149.51953125)"/>
<path d="M0 0 C5.3074758 -0.50547389 7.82331859 0.77256437 12 4 C14 6 14 6 14.1953125 8.1640625 C14.17210937 8.97617188 14.14890625 9.78828125 14.125 10.625 C14.10695313 11.44226563 14.08890625 12.25953125 14.0703125 13.1015625 C14.04710937 13.72804687 14.02390625 14.35453125 14 15 C13.01 15 12.02 15 11 15 C10.34 14.01 9.68 13.02 9 12 C6.0191155 12.44161252 4.8585881 13.12020011 2.5 15.125 C0 17 0 17 -2.25 16.8125 C-4 16 -4 16 -5 15 C-5.66 15.66 -6.32 16.32 -7 17 C-8.32 16.34 -9.64 15.68 -11 15 C-7.98699074 11.48482253 -4.8517903 9.79059973 -0.70703125 7.9296875 C1.18240609 7.11151366 1.18240609 7.11151366 2 5 C1.01 4.67 0.02 4.34 -1 4 C-0.67 2.68 -0.34 1.36 0 0 Z " fill="#193340" transform="translate(270,205)"/>
<path d="M0 0 C0 0.66 0 1.32 0 2 C-0.66 2 -1.32 2 -2 2 C-2 2.66 -2 3.32 -2 4 C-0.35 4 1.3 4 3 4 C3 4.33 3 4.66 3 5 C1.35 5.33 -0.3 5.66 -2 6 C-2 6.99 -2 7.98 -2 9 C-1.34 9.33 -0.68 9.66 0 10 C-1.21883433 13.65650299 -2.0548231 13.848687 -5.375 15.5625 C-8.03651344 16.95394269 -10.49376655 18.3291777 -13 20 C-15.6875 20.125 -15.6875 20.125 -18 20 C-18.65075002 16.8113249 -18.8319857 14.16658798 -18 11 C-15.01952246 8.07061636 -11.58036704 6.11966515 -8 4 C-7.030625 3.195625 -6.06125 2.39125 -5.0625 1.5625 C-3 0 -3 0 0 0 Z " fill="#E4E9EA" transform="translate(272,200)"/>
<path d="M0 0 C1.69141656 0.08963062 3.37959602 0.24577676 5.0625 0.4375 C6.44115234 0.59025391 6.44115234 0.59025391 7.84765625 0.74609375 C8.55792969 0.82988281 9.26820313 0.91367187 10 1 C9.36934243 4.21852831 8.21979305 6.50801069 6.4375 9.25 C5.98246094 9.95640625 5.52742188 10.6628125 5.05859375 11.390625 C4.70925781 11.92171875 4.35992187 12.4528125 4 13 C3.13117188 12.72285156 2.26234375 12.44570313 1.3671875 12.16015625 C0.21476563 11.79792969 -0.93765625 11.43570312 -2.125 11.0625 C-3.26195312 10.70285156 -4.39890625 10.34320313 -5.5703125 9.97265625 C-8.71432699 9.08101661 -11.76894393 8.46648986 -15 8 C-12.52278975 5.52278975 -10.18584694 4.73451576 -6.9375 3.4375 C-3.1982703 2.16203315 -3.1982703 2.16203315 0 0 Z " fill="#B5C7CD" transform="translate(213,403)"/>
<path d="M0 0 C0.66 0 1.32 0 2 0 C2 0.66 2 1.32 2 2 C3.32 2.33 4.64 2.66 6 3 C0.38299371 7.22271395 -4.83049092 10.5476218 -12 11 C-14.26171875 10.53515625 -14.26171875 10.53515625 -16 10 C-16 8.68 -16 7.36 -16 6 C-19.63 6 -23.26 6 -27 6 C-27 5.67 -27 5.34 -27 5 C-26.16597656 4.87882813 -25.33195313 4.75765625 -24.47265625 4.6328125 C-19.26358121 3.85711977 -14.11364625 3.08442216 -9 1.8125 C-5.70687165 1.03015459 -3.29211993 0.93802583 0 2 C0 1.34 0 0.68 0 0 Z " fill="#122D3B" transform="translate(264,219)"/>
<path d="M0 0 C3.16451962 0.63432938 5.51687779 1.73182928 8.25 3.4375 C8.95640625 3.86933594 9.6628125 4.30117188 10.390625 4.74609375 C10.92171875 5.15988281 11.4528125 5.57367188 12 6 C12 6.66 12 7.32 12 8 C10.75863281 8.39832031 9.51726562 8.79664063 8.23828125 9.20703125 C6.59624897 9.74186462 4.95432768 10.27703885 3.3125 10.8125 C2.49587891 11.07353516 1.67925781 11.33457031 0.83789062 11.60351562 C-3.48844657 13.02227398 -7.09276192 14.63175054 -11 17 C-11.66 16.67 -12.32 16.34 -13 16 C-12.31292969 15.26394531 -11.62585938 14.52789062 -10.91796875 13.76953125 C-10.00758499 12.78406429 -9.09744146 11.79837538 -8.1875 10.8125 C-7.29417969 9.84957031 -6.40085938 8.88664062 -5.48046875 7.89453125 C-3.30297922 5.35355528 -1.60807526 2.92231617 0 0 Z " fill="#A6BCC6" transform="translate(251,376)"/>
<path d="M0 0 C2.9375 2 2.9375 2 5 4 C4.67 5.65 4.34 7.3 4 9 C2.741875 8.9175 1.48375 8.835 0.1875 8.75 C-1.98797348 8.68311857 -1.98797348 8.68311857 -4 9 C-6.05270463 10.84188612 -6.05270463 10.84188612 -7 13 C-8.32 12.67 -9.64 12.34 -11 12 C-11.61770762 3.81537406 -11.61770762 3.81537406 -9.4375 0.9375 C-6.03898358 -0.3696217 -3.61538008 -0.44399404 0 0 Z " fill="#0A212D" transform="translate(180,176)"/>
<path d="M0 0 C1.37562854 1.28965176 2.70766393 2.62689293 4 4 C4 4.66 4 5.32 4 6 C5.32 6 6.64 6 8 6 C7.67 7.32 7.34 8.64 7 10 C6.01 10 5.02 10 4 10 C3.67 11.32 3.34 12.64 3 14 C3.99 14.33 4.98 14.66 6 15 C4.68 15.33 3.36 15.66 2 16 C1.67 17.98 1.34 19.96 1 22 C0.01 21.67 -0.98 21.34 -2 21 C-2.12375 20.195625 -2.2475 19.39125 -2.375 18.5625 C-2.58125 17.716875 -2.7875 16.87125 -3 16 C-3.66 15.67 -4.32 15.34 -5 15 C-4.34 15 -3.68 15 -3 15 C-3 14.01 -3 13.02 -3 12 C-3.99 12.33 -4.98 12.66 -6 13 C-6 12.34 -6 11.68 -6 11 C-5.34 11 -4.68 11 -4 11 C-4.2475 10.2575 -4.495 9.515 -4.75 8.75 C-4.8325 7.8425 -4.915 6.935 -5 6 C-3.125 3.8125 -3.125 3.8125 -1 2 C-0.67 1.34 -0.34 0.68 0 0 Z " fill="#6F828A" transform="translate(272,155)"/>
<path d="M0 0 C0.78375 0.04125 1.5675 0.0825 2.375 0.125 C2.625 3.375 2.625 3.375 2.375 7.125 C0.5 9.25 0.5 9.25 -1.625 11.125 C-2.87936187 13.75722962 -2.87936187 13.75722962 -3.625 16.125 C-7.585 16.62 -7.585 16.62 -11.625 17.125 C-11.11787967 13.40611761 -10.50891785 10.39045761 -8.625 7.125 C-7.305 7.125 -5.985 7.125 -4.625 7.125 C-4.66625 6.34125 -4.7075 5.5575 -4.75 4.75 C-4.57462841 1.06719662 -3.68280338 0.17537159 0 0 Z " fill="#8A9DA5" transform="translate(144.625,137.875)"/>
<path d="M0 0 C1.2694598 3.81806993 0.95739849 7.38833351 0.8125 11.375 C0.64643972 18.53532207 1.86221918 24.15028938 4.3203125 30.9140625 C5.13438907 34.61015726 4.47349564 36.56871294 3 40 C0 39 0 39 -1.17578125 36.86328125 C-3.93047984 27.29364111 -3.17229253 9.51687759 0 0 Z " fill="#B1BDC3" transform="translate(206,299)"/>
<path d="M0 0 C5.67420636 -0.07460523 11.34812208 -0.12881608 17.02270508 -0.16479492 C18.94983906 -0.17980652 20.87693932 -0.20022216 22.80395508 -0.22631836 C25.58683639 -0.26303943 28.36926288 -0.27980292 31.15234375 -0.29296875 C32.00271713 -0.30845261 32.85309052 -0.32393646 33.72923279 -0.33988953 C39.29315084 -0.3414267 45.12686855 0.06349901 50 3 C50.74668884 5.10823059 50.74668884 5.10823059 51 7 C47.67061923 6.49745196 44.44461844 5.86398819 41.171875 5.0625 C27.50555232 1.72201679 14.0300889 1.19055032 0 1 C0 0.67 0 0.34 0 0 Z " fill="#5B686F" transform="translate(259,298)"/>
<path d="M0 0 C0.66 0 1.32 0 2 0 C2.4125 0.94875 2.825 1.8975 3.25 2.875 C5.0040131 6.00716624 5.70851757 6.86500606 9 8 C9 8.66 9 9.32 9 10 C8.030625 10.61875 7.06125 11.2375 6.0625 11.875 C2.89459901 13.65036352 2.89459901 13.65036352 2.125 16.25 C2.08375 16.8275 2.0425 17.405 2 18 C1.34 18 0.68 18 0 18 C-0.226875 17.236875 -0.45375 16.47375 -0.6875 15.6875 C-2.27302175 12.44095547 -3.90214579 11.71197206 -7 10 C-7 9.34 -7 8.68 -7 8 C-5.35 7.67 -3.7 7.34 -2 7 C-1.34 4.69 -0.68 2.38 0 0 Z " fill="#DBE4E6" transform="translate(267,171)"/>
<path d="M0 0 C-0.845625 0.53367188 -1.69125 1.06734375 -2.5625 1.6171875 C-9.30585838 6.00196274 -14.54326712 10.1414961 -19.21875 16.8359375 C-21.23672433 19.2875993 -23.24767994 20.45537523 -26 22 C-27.7041054 23.62836738 -29.38025441 25.28769752 -31 27 C-26.95796171 15.91823951 -16.92493897 6.46326839 -7.0625 0.3125 C-3.79619675 -1.08734425 -3.19003227 -1.02659786 0 0 Z " fill="#616E75" transform="translate(146,159)"/>
<path d="M0 0 C2.89013058 0.98872888 3.69769307 1.48607822 5.25 4.125 C5.4975 4.74375 5.745 5.3625 6 6 C5.01 6 4.02 6 3 6 C3 7.32 3 8.64 3 10 C0.06461428 9.5484022 -1.42396004 8.71134636 -3.9375 7 C-6.82345826 5.11529257 -8.63184085 4.39625402 -12 4 C-12 3.34 -12 2.68 -12 2 C-11.34 2 -10.68 2 -10 2 C-10 1.34 -10 0.68 -10 0 C-6.75592366 -1.62203817 -3.4414837 -0.6555207 0 0 Z " fill="#EFF2F3" transform="translate(282,200)"/>
<path d="M0 0 C-0.33 1.65 -0.66 3.3 -1 5 C-4.35735137 6.11911712 -6.88205386 6.11365586 -10.41796875 6.09765625 C-11.67158203 6.09443359 -12.92519531 6.09121094 -14.21679688 6.08789062 C-15.52712891 6.07951172 -16.83746094 6.07113281 -18.1875 6.0625 C-19.52278481 6.05748317 -20.85807141 6.05292059 -22.19335938 6.04882812 C-25.46228473 6.03702695 -28.73111991 6.02056297 -32 6 C-32 5.67 -32 5.34 -32 5 C-30.87980469 4.96261719 -29.75960937 4.92523438 -28.60546875 4.88671875 C-27.1327791 4.82105743 -25.66012434 4.75461014 -24.1875 4.6875 C-23.44951172 4.66494141 -22.71152344 4.64238281 -21.95117188 4.61914062 C-17.79459582 4.51903254 -17.79459582 4.51903254 -14.30078125 2.53515625 C-13.87152344 2.02855469 -13.44226563 1.52195313 -13 1 C-10.625 0.234375 -10.625 0.234375 -8 -0.25 C-6.700625 -0.50523437 -6.700625 -0.50523437 -5.375 -0.765625 C-3 -1 -3 -1 0 0 Z " fill="#082734" transform="translate(249,225)"/>
<path d="M0 0 C6.6 0 13.2 0 20 0 C20 0.33 20 0.66 20 1 C19.04480469 1.02578125 18.08960938 1.0515625 17.10546875 1.078125 C4.38197348 1.63628431 -7.74834282 4.80749953 -18.14453125 12.609375 C-20.11407362 14.08549517 -21.59885042 14.57122329 -24 15 C-21.19195732 12.03595495 -18.81684226 9.55500981 -15 8 C-15.33 7.34 -15.66 6.68 -16 6 C-10.45834744 2.22695996 -6.65545792 1.45669731 0 2 C0 1.34 0 0.68 0 0 Z " fill="#2B3A42" transform="translate(160,151)"/>
<path d="M0 0 C2.375 0.25 2.375 0.25 5 1 C7.59663488 4.55933285 7.26668696 8.29480976 7.25 12.5625 C7.25773437 13.23474609 7.26546875 13.90699219 7.2734375 14.59960938 C7.25880148 18.28422836 7.09589902 19.85615148 5 23 C5 18.71 5 14.42 5 10 C3.68 10 2.36 10 1 10 C0.34 10.99 -0.32 11.98 -1 13 C-1.2236337 11.58566794 -1.42826476 10.16832382 -1.625 8.75 C-1.74101562 7.96109375 -1.85703125 7.1721875 -1.9765625 6.359375 C-2.00319395 3.67847541 -1.36592084 2.27305911 0 0 Z " fill="#E7ECEC" transform="translate(285,206)"/>
<path d="M0 0 C1.66611905 -0.042721 3.33382885 -0.04063832 5 0 C6 1 6 1 6.3125 4.125 C5.92203571 8.96675716 4.72999151 11.02201237 2 15 C1.01 15.66 0.02 16.32 -1 17 C-0.37240135 14.07120629 0.58622659 11.63904371 2 9 C0.68 8.34 -0.64 7.68 -2 7 C-1.34 4.69 -0.68 2.38 0 0 Z " fill="#39454B" transform="translate(274,170)"/>
<path d="M0 0 C1.65 0.33 3.3 0.66 5 1 C5 1.66 5 2.32 5 3 C6.32 2.34 7.64 1.68 9 1 C8.47765853 4.76085859 7.87637713 7.41126058 5 10 C1.3125 10.25 1.3125 10.25 -2 10 C-2.20271267 6.35117201 -1.81140333 4.16995583 0 1 C0 0.67 0 0.34 0 0 Z " fill="#1B2328" transform="translate(203,157)"/>
<path d="M0 0 C-0.29132813 0.54269531 -0.58265625 1.08539063 -0.8828125 1.64453125 C-2.56000293 5.18070549 -3.62934806 8.90822598 -4.8046875 12.63671875 C-6 15 -6 15 -8.1328125 15.83203125 C-8.74898437 15.88746094 -9.36515625 15.94289062 -10 16 C-9.71937057 13.51911645 -9.42609401 11.04090815 -9.125 8.5625 C-9.04636719 7.85544922 -8.96773437 7.14839844 -8.88671875 6.41992188 C-8.66072324 4.60326568 -8.33699273 2.79937478 -8 1 C-5.29120665 -0.35439668 -2.99066732 -0.06501451 0 0 Z " fill="#4F6169" transform="translate(159,132)"/>
<path d="M0 0 C0.66 0.33 1.32 0.66 2 1 C0.68 3.31 -0.64 5.62 -2 8 C-2.99 8 -3.98 8 -5 8 C-6.68873879 9.64429829 -8.35305515 11.31384218 -10 13 C-11.36125 13.7734375 -11.36125 13.7734375 -12.75 14.5625 C-15.17279826 15.79223587 -15.17279826 15.79223587 -15.8125 18.1875 C-15.874375 18.785625 -15.93625 19.38375 -16 20 C-17.32 20 -18.64 20 -20 20 C-20.33 20.99 -20.66 21.98 -21 23 C-21.66 22.67 -22.32 22.34 -23 22 C-18.02758929 16.16799701 -12.90778279 10.88309242 -7 6 C-6.05125 5.195625 -5.1025 4.39125 -4.125 3.5625 C-2 2 -2 2 0 2 C0 1.34 0 0.68 0 0 Z " fill="#475D65" transform="translate(120,93)"/>
</svg>
