<?xml version="1.0" encoding="UTF-8" standalone="no"?>
<svg xmlns="http://www.w3.org/2000/svg" width="32" height="32" viewBox="0 0 32 32" version="1.1">
    <path
        d="M 16 2 C 8.3 2 2 8.3 2 16 C 2 23.7 8.3 30 16 30 C 23.7 30 30 23.7 30 16 C 30 8.3 23.7 2 16 2 Z M 22.7 18.4 C 22.7 21.5 20.3 23.4 17.3 23.4 C 13.7 23.4 11.6 21.4 10.6 18.4 C 10 16.4 9.9 14.2 10.4 12.2 C 11.3 8.6 13.6 6.5 17 6.5 C 19.7 6.5 21.6 7.7 22.4 10 L 20.5 10.7 C 19.9 9.2 18.7 8.4 16.9 8.4 C 14.5 8.4 13 9.8 12.3 12.5 C 12 13.6 11.9 14.9 12 16 C 12.5 13.7 14.5 12.5 17 12.5 C 20.3 12.5 22.7 14.6 22.7 18.4 Z M 17.1 14.3 C 15.2 14.3 13.7 15.5 13.7 17.4 C 13.7 19.3 15 21.5 17.4 21.5 C 19.6 21.5 20.9 20.1 20.9 18.5 C 20.9 16.5 19.5 14.3 17.1 14.3 Z M 17.4 19.6 C 16.4 19.6 15.6 18.8 15.6 17.4 C 15.6 16.4 16.3 16 17.1 16 C 18.5 16 19 17 19 18.4 C 19 19.2 18.4 19.6 17.4 19.6 Z"
        style="fill:#bebebe;fill-opacity:1;stroke:none"/>
</svg>
