<?xml version="1.0" encoding="UTF-8"?>
<svg xmlns="http://www.w3.org/2000/svg" width="16px" height="16px" viewBox="0 0 16 16">
    <g fill="#2e3436">
        <path d="M 8 3 C 5.238281 3 3 5.238281 3 8 C 3 10.761719 5.238281 13 8 13 C 10.761719 13 13 10.761719 13 8 C 13 5.238281 10.761719 3 8 3 Z M 8 5 C 9.65625 5 11 6.34375 11 8 C 11 9.65625 9.65625 11 8 11 C 6.34375 11 5 9.65625 5 8 C 5 6.34375 6.34375 5 8 5 Z M 8 5 "/>
        <path d="M 1 4 C 1 2.34375 2.34375 1 4 1 L 12 1 C 13.65625 1 15 2.34375 15 4 L 15 12 C 15 13.65625 13.65625 15 12 15 L 4 15 C 2.34375 15 1 13.65625 1 12 Z M 3 4 L 3 12 C 3 12.550781 3.449219 13 4 13 L 12 13 C 12.550781 13 13 12.550781 13 12 L 13 4 C 13 3.449219 12.550781 3 12 3 L 4 3 C 3.449219 3 3 3.449219 3 4 Z M 3 4 "/>
    </g>
</svg>
