<?xml version="1.0" encoding="UTF-8" standalone="no"?>
<svg xmlns="http://www.w3.org/2000/svg" width="32" height="32" viewBox="0 0 32 32" version="1.1">
    <path
        d="M 25.5 7.5 C 23.6 6.6 21.6 6 19.5 5.6 C 19.2 6.1 18.9 6.8 18.7 7.4 C 16.5 7.1 14.3 7.1 12.1 7.4 C 11.9 6.8 11.6 6.1 11.3 5.6 C 9.2 6 7.2 6.6 5.3 7.5 C 1.6 13 0.6 18.4 1.1 23.7 C 3.6 25.6 6.1 26.7 8.5 27.5 C 9.1 26.7 9.6 25.9 10 25 C 9.2 24.7 8.4 24.3 7.7 23.9 C 7.9 23.7 8.1 23.6 8.3 23.4 C 12.9 25.6 17.9 25.6 22.5 23.4 C 22.7 23.6 22.9 23.7 23.1 23.9 C 22.4 24.3 21.6 24.7 20.8 25 C 21.2 25.9 21.7 26.7 22.3 27.5 C 24.7 26.7 27.2 25.6 29.7 23.7 C 30.3 17.5 28.7 12.2 25.5 7.5 Z M 11 20.5 C 9.7 20.5 8.7 19.3 8.7 17.9 C 8.7 16.4 9.7 15.3 11 15.3 C 12.3 15.3 13.4 16.4 13.3 17.9 C 13.3 19.3 12.3 20.5 11 20.5 Z M 19.8 20.5 C 18.5 20.5 17.5 19.3 17.5 17.9 C 17.5 16.4 18.5 15.3 19.8 15.3 C 21.1 15.3 22.1 16.4 22.1 17.9 C 22.1 19.3 21.1 20.5 19.8 20.5 Z"
        style="fill:#bebebe;fill-opacity:1;stroke:none"/>
</svg>
