<?xml version="1.0" encoding="UTF-8" standalone="no"?>
<svg xmlns="http://www.w3.org/2000/svg" width="32" height="32" viewBox="0 0 32 32" version="1.1">
    <path
        d="M 8.5 5.5 C 11 5.5 14 7.5 16 11.5 C 18 7.5 21 5.5 23.5 5.5 C 27 5.5 28 8 28 10.5 C 28 13 27 15 25 15.5 C 26.5 16 27.5 17.5 27.5 19.5 C 27.5 22.5 25 24.5 22 24.5 C 19 24.5 17 22 16 19.5 C 15 22 13 24.5 10 24.5 C 7 24.5 4.5 22.5 4.5 19.5 C 4.5 17.5 5.5 16 7 15.5 C 5 15 4 13 4 10.5 C 4 8 5 5.5 8.5 5.5 Z"
        style="fill:#bebebe;fill-opacity:1;stroke:none"/>
</svg>
