<?xml version="1.0" encoding="UTF-8" standalone="no"?>
<svg xmlns="http://www.w3.org/2000/svg" width="32" height="32" viewBox="0 0 32 32" version="1.1">
    <path
        d="M 28 4 L 4 4 C 2.9 4 2 4.9 2 6 L 2 26 C 2 27.1 2.9 28 4 28 L 28 28 C 29.1 28 30 27.1 30 26 L 30 6 C 30 4.9 29.1 4 28 4 Z M 10.6 24 L 6.6 24 L 6.6 12.7 L 10.6 12.7 L 10.6 24 Z M 8.6 11 C 7.3 11 6.3 9.9 6.3 8.7 C 6.3 7.4 7.3 6.4 8.6 6.4 C 9.9 6.4 10.9 7.4 10.9 8.7 C 10.9 9.9 9.9 11 8.6 11 Z M 25.5 24 L 21.5 24 L 21.5 18.3 C 21.5 16.9 21.5 15.1 19.6 15.1 C 17.6 15.1 17.3 16.6 17.3 18.2 L 17.3 24 L 13.3 24 L 13.3 12.7 L 17.1 12.7 L 17.1 14.3 L 17.2 14.3 C 17.7 13.3 18.9 12.4 20.7 12.4 C 24.7 12.4 25.5 15.1 25.5 18.5 L 25.5 24 Z"
        style="fill:#bebebe;fill-opacity:1;stroke:none"/>
</svg>
